<?xml version="1.0" encoding="iso-8859-1"?>
<!-- Generator: Adobe Illustrator 17.0.0, SVG Export Plug-In . SVG Version: 6.00 Build 0)  -->
<!DOCTYPE svg PUBLIC "-//W3C//DTD SVG 1.1//EN" "http://www.w3.org/Graphics/SVG/1.1/DTD/svg11.dtd">
<svg version="1.1" id="Layer_1" xmlns="http://www.w3.org/2000/svg" xmlns:xlink="http://www.w3.org/1999/xlink" x="0px" y="0px"
	 width="71.69px" height="26.655px" viewBox="0 0 71.69 26.655" style="enable-background:new 0 0 71.69 26.655;"
	 xml:space="preserve">
<g>
	<defs>
		<rect id="SVGID_1_" x="-17.137" y="74.829" width="71.69" height="26.655"/>
	</defs>
	<clipPath id="SVGID_2_">
		<use xlink:href="#SVGID_1_"  style="overflow:visible;"/>
	</clipPath>
	<path style="clip-path:url(#SVGID_2_);fill-rule:evenodd;clip-rule:evenodd;fill:#0E7C97;" d="M53.053,96.709
		c0,1.809-1.466,3.275-3.275,3.275h-62.139c-1.809,0-3.276-1.466-3.276-3.275V79.605c0-1.809,1.467-3.275,3.276-3.275h62.139
		c1.809,0,3.275,1.466,3.275,3.275V96.709z"/>
	<path style="clip-path:url(#SVGID_2_);fill:none;stroke:#0E7C97;stroke-width:3;stroke-miterlimit:10;" d="M53.053,96.709
		c0,1.809-1.466,3.275-3.275,3.275h-62.139c-1.809,0-3.276-1.466-3.276-3.275V79.605c0-1.809,1.467-3.275,3.276-3.275h62.139
		c1.809,0,3.275,1.466,3.275,3.275V96.709z"/>
	<path style="clip-path:url(#SVGID_2_);fill-rule:evenodd;clip-rule:evenodd;fill:#FFFFFF;" d="M8.44,76.329h-20.802
		c-1.809,0-3.275,1.466-3.275,3.275v17.104c0,1.809,1.466,3.276,3.275,3.276H8.44V76.329z"/>
	<path style="clip-path:url(#SVGID_2_);fill-rule:evenodd;clip-rule:evenodd;fill:#0E7C97;" d="M-4.222,83.684l-1.023,1.409
		c-0.513,0.706-0.354,1.957,0.346,2.463l1.897,1.369c0.325,0.235,0.351,0.468,0.197,0.717l0.275,0.204l0.96-1.33
		c0.593-0.822,0.542-1.94-0.338-2.581l-1.913-1.393c-0.229-0.167-0.252-0.4-0.126-0.661L-4.222,83.684z"/>
	<path style="clip-path:url(#SVGID_2_);fill-rule:evenodd;clip-rule:evenodd;fill:#0E7C97;" d="M-2.581,77.455l-1.593,2.203
		c-0.747,1.033-0.475,2.797,0.545,3.546l2.619,1.921c0.531,0.39,0.6,1.382,0.213,1.891l0.222,0.166l1.806-2.541
		c0.812-1.141,0.764-2.827-0.509-3.752l-2.801-2.033c-0.392-0.285-0.588-0.769-0.261-1.231L-2.581,77.455z"/>
	<polygon style="clip-path:url(#SVGID_2_);fill-rule:evenodd;clip-rule:evenodd;fill:#0E7C97;" points="-6.778,91.269 
		-4.667,91.269 -4.291,92.549 -0.842,92.549 -0.466,91.269 1.645,91.269 1.368,90.328 -6.501,90.328 	"/>
	<path style="clip-path:url(#SVGID_2_);fill-rule:evenodd;clip-rule:evenodd;fill:#006696;" d="M4.121,97.834
		c0-0.019-0.003-0.037-0.008-0.052c-0.005-0.015-0.013-0.028-0.025-0.041c-0.013-0.012-0.028-0.024-0.049-0.034
		c-0.02-0.011-0.044-0.021-0.074-0.031c-0.027-0.01-0.049-0.019-0.066-0.027c-0.017-0.008-0.03-0.016-0.039-0.024
		c-0.009-0.008-0.015-0.017-0.018-0.025c-0.003-0.009-0.005-0.019-0.005-0.03c0-0.01,0.002-0.02,0.006-0.03
		c0.004-0.009,0.01-0.017,0.018-0.024c0.009-0.007,0.02-0.013,0.033-0.017s0.029-0.006,0.048-0.006c0.027,0,0.05,0.004,0.07,0.012
		c0.02,0.009,0.04,0.02,0.059,0.037l0.039-0.046c-0.023-0.018-0.047-0.031-0.072-0.041c-0.026-0.01-0.057-0.015-0.092-0.015
		c-0.026,0-0.048,0.003-0.069,0.009c-0.021,0.006-0.039,0.015-0.053,0.026c-0.015,0.012-0.026,0.026-0.034,0.043
		c-0.009,0.016-0.013,0.035-0.013,0.056c0,0.019,0.003,0.035,0.008,0.05c0.006,0.014,0.014,0.027,0.026,0.039
		c0.012,0.012,0.028,0.023,0.048,0.033s0.044,0.02,0.074,0.03c0.024,0.009,0.045,0.017,0.061,0.025
		c0.016,0.009,0.03,0.017,0.04,0.026c0.01,0.008,0.017,0.017,0.021,0.027c0.004,0.01,0.006,0.021,0.006,0.033
		c0,0.028-0.01,0.05-0.031,0.066s-0.049,0.024-0.085,0.024c-0.028,0-0.054-0.006-0.077-0.017c-0.024-0.012-0.046-0.027-0.066-0.046
		l-0.04,0.043c0.021,0.021,0.048,0.039,0.079,0.052c0.031,0.014,0.065,0.021,0.102,0.021c0.028,0,0.053-0.004,0.075-0.011
		c0.022-0.008,0.041-0.018,0.056-0.031c0.015-0.013,0.027-0.028,0.035-0.046S4.121,97.855,4.121,97.834"/>
	<path style="clip-path:url(#SVGID_2_);fill-rule:evenodd;clip-rule:evenodd;fill:#006696;" d="M4.68,97.972v-0.524H4.615
		l-0.129,0.314c-0.003,0.007-0.006,0.016-0.01,0.025c-0.004,0.01-0.008,0.019-0.011,0.029c-0.004,0.009-0.007,0.018-0.01,0.027
		c-0.003,0.008-0.006,0.015-0.007,0.021c-0.002-0.006-0.004-0.013-0.007-0.021c-0.003-0.008-0.007-0.017-0.01-0.026
		c-0.004-0.01-0.008-0.019-0.011-0.029c-0.004-0.01-0.008-0.018-0.011-0.026l-0.127-0.314H4.216v0.524h0.057v-0.355v-0.056
		c0.002,0.005,0.004,0.011,0.006,0.019c0.002,0.007,0.005,0.014,0.008,0.022c0.002,0.008,0.005,0.016,0.008,0.024
		c0.003,0.008,0.007,0.016,0.01,0.022l0.141,0.338l0.144-0.338c0.003-0.007,0.006-0.014,0.009-0.022
		c0.003-0.008,0.006-0.016,0.009-0.024c0.004-0.008,0.006-0.015,0.008-0.022c0.003-0.008,0.005-0.014,0.006-0.019v0.056v0.355H4.68z
		"/>
	<path style="clip-path:url(#SVGID_2_);fill-rule:evenodd;clip-rule:evenodd;fill:#0E7C97;" d="M-4.964,96.519
		c-0.09-0.608-0.335-0.754-0.826-0.97c0.371-0.217,0.599-0.536,0.599-0.973c0-0.874-0.716-1.231-1.497-1.231h-2.183v4.641h2.162
		C-5.785,97.986-4.807,97.582-4.964,96.519 M-7.884,94.232h1.134c0.709,0,0.734,0.99,0.045,0.99h-1.179V94.232z M-6.619,97.109
		h-1.265V96.05h1.265C-5.689,96.05-5.746,97.109-6.619,97.109"/>
	<path style="clip-path:url(#SVGID_2_);fill-rule:evenodd;clip-rule:evenodd;fill:#0E7C97;" d="M-0.631,96.519
		c-0.09-0.608-0.335-0.754-0.825-0.97c0.37-0.217,0.598-0.536,0.598-0.973c0-0.874-0.716-1.231-1.497-1.231h-2.183v4.641h2.162
		C-1.452,97.986-0.474,97.582-0.631,96.519 M-3.551,94.232h1.134c0.709,0,0.734,0.99,0.045,0.99h-1.179V94.232z M-2.286,97.109
		h-1.265V96.05h1.265C-1.356,96.05-1.413,97.109-2.286,97.109"/>
	<path style="clip-path:url(#SVGID_2_);fill-rule:evenodd;clip-rule:evenodd;fill:#0E7C97;" d="M3.702,96.519
		c-0.09-0.608-0.335-0.754-0.825-0.97c0.37-0.217,0.598-0.536,0.598-0.973c0-0.874-0.716-1.231-1.497-1.231h-2.183v4.641h2.162
		C2.881,97.986,3.859,97.582,3.702,96.519 M0.783,94.232h1.133c0.709,0,0.734,0.99,0.045,0.99H0.783V94.232z M2.047,97.109H0.783
		V96.05h1.264C2.977,96.05,2.92,97.109,2.047,97.109"/>
	<path style="clip-path:url(#SVGID_2_);fill-rule:evenodd;clip-rule:evenodd;fill:#FFFFFF;" d="M19.202,85.434
		c-0.264-0.304-0.679-0.582-1.071-0.689c-0.17-0.047-0.359-0.07-0.568-0.07c-0.294,0-0.562,0.054-0.805,0.161
		c-0.242,0.107-0.451,0.256-0.625,0.448c-0.175,0.192-0.311,0.422-0.409,0.691c-0.098,0.269-0.147,0.564-0.147,0.888
		c0,0.335,0.047,0.637,0.141,0.906c0.093,0.268,0.226,0.498,0.399,0.688c0.172,0.189,0.377,0.336,0.616,0.439
		c0.238,0.103,0.504,0.154,0.798,0.154c0.541,0,1.478-0.296,1.745-0.823l-0.635-0.564c-0.181,0.288-0.746,0.545-1.084,0.545
		c-0.166,0-0.315-0.034-0.447-0.103s-0.244-0.164-0.336-0.285c-0.091-0.121-0.16-0.263-0.207-0.427
		c-0.047-0.163-0.07-0.34-0.07-0.53c0-0.198,0.023-0.379,0.07-0.543c0.047-0.163,0.115-0.305,0.204-0.424
		c0.09-0.119,0.2-0.212,0.332-0.279c0.132-0.066,0.281-0.1,0.447-0.1c0.336,0,0.81,0.223,1.032,0.515L19.202,85.434z"/>
	<polygon style="clip-path:url(#SVGID_2_);fill-rule:evenodd;clip-rule:evenodd;fill:#FFFFFF;" points="31.442,88.984 
		31.442,88.154 29.137,88.154 29.137,87.13 30.992,87.13 30.992,86.306 29.137,86.306 29.137,85.572 31.346,85.572 31.346,84.742 
		28.243,84.742 28.243,88.984 	"/>
	<path style="clip-path:url(#SVGID_2_);fill-rule:evenodd;clip-rule:evenodd;fill:#FFFFFF;" d="M35.561,85.878
		c-0.113-0.269-0.269-0.488-0.467-0.657c-0.198-0.17-0.431-0.292-0.702-0.367c-0.27-0.075-0.565-0.112-0.885-0.112h-1.398v4.242
		h1.335c0.285,0,0.565-0.041,0.839-0.121c0.275-0.081,0.52-0.208,0.735-0.379c0.215-0.172,0.387-0.392,0.517-0.661
		c0.13-0.268,0.195-0.589,0.195-0.96C35.73,86.475,35.673,86.147,35.561,85.878 M34.727,87.393c-0.055,0.16-0.138,0.296-0.249,0.409
		s-0.252,0.201-0.425,0.264c-0.172,0.062-0.375,0.094-0.609,0.094h-0.441v-2.594h0.473c0.472,0,0.812,0.108,1.021,0.324
		c0.209,0.216,0.313,0.541,0.313,0.973C34.81,87.057,34.783,87.233,34.727,87.393"/>
	
		<rect x="36.595" y="84.742" style="clip-path:url(#SVGID_2_);fill-rule:evenodd;clip-rule:evenodd;fill:#FFFFFF;" width="0.894" height="4.242"/>
	<polygon style="clip-path:url(#SVGID_2_);fill-rule:evenodd;clip-rule:evenodd;fill:#FFFFFF;" points="41.655,85.579 
		41.655,84.743 38.194,84.743 38.194,85.579 39.477,85.579 39.477,88.985 40.371,88.985 40.371,85.579 	"/>
	<path style="clip-path:url(#SVGID_2_);fill-rule:evenodd;clip-rule:evenodd;fill:#FFFFFF;" d="M49.55,85.878
		c-0.112-0.269-0.268-0.488-0.466-0.657c-0.198-0.17-0.432-0.292-0.702-0.367c-0.27-0.075-0.565-0.112-0.885-0.112h-1.398v4.242
		h1.334c0.286,0,0.566-0.041,0.84-0.121c0.275-0.081,0.52-0.208,0.735-0.379c0.215-0.172,0.387-0.392,0.517-0.661
		c0.13-0.268,0.195-0.589,0.195-0.96C49.72,86.475,49.663,86.147,49.55,85.878 M48.717,87.393c-0.055,0.16-0.138,0.296-0.249,0.409
		s-0.252,0.201-0.425,0.264c-0.172,0.062-0.375,0.094-0.61,0.094h-0.44v-2.594h0.473c0.472,0,0.812,0.108,1.021,0.324
		c0.209,0.216,0.313,0.541,0.313,0.973C48.8,87.057,48.773,87.233,48.717,87.393"/>
	<polygon style="clip-path:url(#SVGID_2_);fill-rule:evenodd;clip-rule:evenodd;fill:#FFFFFF;" points="45.429,88.984 
		45.429,88.154 43.124,88.154 43.124,87.13 44.979,87.13 44.979,86.306 43.124,86.306 43.124,85.572 45.333,85.572 45.333,84.742 
		42.229,84.742 42.229,88.984 	"/>
	<polygon style="clip-path:url(#SVGID_2_);fill-rule:evenodd;clip-rule:evenodd;fill:#FFFFFF;" points="37.949,94.461 
		37.949,93.631 35.644,93.631 35.644,92.607 37.499,92.607 37.499,91.783 35.644,91.783 35.644,91.049 37.853,91.049 37.853,90.219 
		34.749,90.219 34.749,94.461 	"/>
	<path style="clip-path:url(#SVGID_2_);fill-rule:evenodd;clip-rule:evenodd;fill:#FFFFFF;" d="M23.33,85.434
		c-0.264-0.304-0.679-0.582-1.071-0.689c-0.17-0.047-0.359-0.07-0.568-0.07c-0.294,0-0.562,0.054-0.805,0.161
		c-0.242,0.107-0.451,0.256-0.625,0.448c-0.175,0.192-0.311,0.422-0.409,0.691c-0.098,0.269-0.147,0.564-0.147,0.888
		c0,0.335,0.047,0.637,0.14,0.906c0.094,0.268,0.227,0.498,0.4,0.688c0.172,0.189,0.377,0.336,0.616,0.439
		c0.238,0.103,0.504,0.154,0.798,0.154c0.541,0,1.478-0.296,1.745-0.823l-0.635-0.564c-0.181,0.288-0.746,0.545-1.084,0.545
		c-0.166,0-0.315-0.034-0.447-0.103s-0.244-0.164-0.336-0.285c-0.091-0.121-0.16-0.263-0.207-0.427
		c-0.047-0.163-0.07-0.34-0.07-0.53c0-0.198,0.023-0.379,0.07-0.543c0.047-0.163,0.115-0.305,0.204-0.424
		c0.09-0.119,0.2-0.212,0.332-0.279c0.132-0.066,0.281-0.1,0.447-0.1c0.336,0,0.81,0.223,1.032,0.515L23.33,85.434z"/>
	<path style="clip-path:url(#SVGID_2_);fill-rule:evenodd;clip-rule:evenodd;fill:#FFFFFF;" d="M19.501,92.51
		c-0.116-0.153-0.261-0.268-0.435-0.345c0.145-0.085,0.258-0.198,0.339-0.34c0.081-0.141,0.121-0.303,0.121-0.484
		c0-0.364-0.124-0.642-0.373-0.834c-0.249-0.192-0.585-0.287-1.008-0.287h-1.997v4.241h1.978c0.233,0,0.444-0.029,0.635-0.087
		c0.191-0.059,0.353-0.146,0.488-0.261c0.135-0.115,0.24-0.258,0.314-0.43c0.075-0.172,0.112-0.369,0.112-0.591
		C19.675,92.857,19.617,92.664,19.501,92.51 M17,91.001h1.108c0.19,0,0.327,0.035,0.41,0.103c0.083,0.069,0.125,0.17,0.125,0.303
		c0,0.117-0.037,0.213-0.109,0.288c-0.073,0.075-0.2,0.112-0.383,0.112H17V91.001z M18.627,93.507
		c-0.102,0.099-0.258,0.148-0.47,0.148H17v-1.096h1.157c0.415,0,0.622,0.181,0.622,0.545C18.779,93.274,18.729,93.408,18.627,93.507
		"/>
	<path style="clip-path:url(#SVGID_2_);fill-rule:evenodd;clip-rule:evenodd;fill:#FFFFFF;" d="M23.784,92.589V90.22h-0.871v2.381
		c0,0.343-0.08,0.612-0.239,0.806c-0.16,0.194-0.379,0.291-0.657,0.291s-0.496-0.099-0.653-0.297
		c-0.158-0.198-0.237-0.469-0.237-0.812V90.22h-0.871v2.381c0,0.311,0.043,0.586,0.128,0.824c0.085,0.238,0.204,0.439,0.358,0.603
		c0.153,0.164,0.339,0.288,0.556,0.373c0.218,0.085,0.458,0.127,0.719,0.127c0.556,0,0.989-0.169,1.3-0.506
		C23.629,93.685,23.784,93.207,23.784,92.589"/>
	<path style="clip-path:url(#SVGID_2_);fill-rule:evenodd;clip-rule:evenodd;fill:#FFFFFF;" d="M27.788,93.176
		c0-0.23-0.043-0.42-0.131-0.57c-0.087-0.149-0.2-0.272-0.339-0.369s-0.294-0.173-0.466-0.228c-0.173-0.054-0.346-0.102-0.52-0.142
		s-0.317-0.077-0.429-0.109s-0.201-0.067-0.268-0.103c-0.066-0.036-0.113-0.078-0.14-0.124c-0.027-0.047-0.04-0.104-0.04-0.173
		c0-0.049,0.01-0.095,0.031-0.139c0.021-0.045,0.056-0.085,0.106-0.122c0.05-0.036,0.114-0.065,0.193-0.087
		c0.078-0.022,0.176-0.034,0.292-0.034c0.199,0,0.378,0.038,0.538,0.112c0.16,0.075,0.31,0.183,0.451,0.325l0.629-0.594
		c-0.208-0.21-0.439-0.374-0.694-0.491c-0.255-0.117-0.553-0.176-0.893-0.176c-0.216,0-0.418,0.029-0.607,0.085
		c-0.188,0.057-0.353,0.138-0.494,0.246c-0.141,0.107-0.252,0.237-0.333,0.39c-0.081,0.154-0.121,0.328-0.121,0.521
		c0,0.211,0.033,0.386,0.099,0.528c0.067,0.141,0.16,0.258,0.28,0.351c0.121,0.093,0.265,0.17,0.433,0.23
		c0.168,0.061,0.351,0.114,0.55,0.158c0.204,0.044,0.369,0.087,0.498,0.127c0.129,0.041,0.227,0.083,0.295,0.127
		c0.069,0.045,0.116,0.092,0.14,0.143c0.025,0.05,0.038,0.11,0.038,0.179c0,0.161-0.061,0.278-0.184,0.351
		c-0.122,0.073-0.314,0.109-0.575,0.109c-0.212,0-0.412-0.037-0.601-0.112c-0.188-0.075-0.36-0.199-0.513-0.373l-0.628,0.546
		c0.165,0.238,0.398,0.426,0.697,0.563c0.298,0.138,0.63,0.206,0.995,0.206c0.299,0,0.555-0.032,0.768-0.097
		c0.214-0.064,0.391-0.156,0.532-0.275c0.141-0.12,0.245-0.262,0.311-0.428C27.755,93.563,27.788,93.379,27.788,93.176"/>
	
		<rect x="28.494" y="90.219" style="clip-path:url(#SVGID_2_);fill-rule:evenodd;clip-rule:evenodd;fill:#FFFFFF;" width="0.871" height="4.242"/>
	<path style="clip-path:url(#SVGID_2_);fill-rule:evenodd;clip-rule:evenodd;fill:#FFFFFF;" d="M33.797,94.461v-4.242h-0.859v1.794
		c0,0.061,0.001,0.135,0.003,0.224c0.002,0.089,0.003,0.18,0.003,0.273c0,0.089,0.001,0.172,0.003,0.251
		c0.003,0.079,0.004,0.139,0.004,0.179c-0.029-0.056-0.074-0.13-0.134-0.221c-0.06-0.091-0.117-0.177-0.171-0.258l-1.543-2.242
		h-0.834v4.242h0.859v-1.866c0-0.061-0.001-0.136-0.003-0.224c-0.002-0.089-0.004-0.178-0.004-0.267
		c0-0.093-0.001-0.179-0.003-0.258c-0.002-0.078-0.003-0.138-0.003-0.178c0.029,0.056,0.074,0.13,0.134,0.221
		c0.06,0.091,0.117,0.176,0.171,0.257l1.599,2.315H33.797z"/>
	<path style="clip-path:url(#SVGID_2_);fill-rule:evenodd;clip-rule:evenodd;fill:#FFFFFF;" d="M41.505,93.176
		c0-0.23-0.044-0.42-0.131-0.57c-0.087-0.149-0.2-0.272-0.339-0.369s-0.294-0.173-0.466-0.228c-0.173-0.054-0.346-0.102-0.52-0.142
		s-0.317-0.077-0.429-0.109s-0.201-0.067-0.268-0.103c-0.066-0.036-0.113-0.078-0.14-0.124c-0.027-0.047-0.04-0.104-0.04-0.173
		c0-0.049,0.01-0.095,0.031-0.139c0.021-0.045,0.056-0.085,0.106-0.122c0.049-0.036,0.113-0.065,0.192-0.087
		c0.079-0.022,0.177-0.034,0.293-0.034c0.199,0,0.378,0.038,0.538,0.112c0.16,0.075,0.31,0.183,0.451,0.325l0.629-0.594
		c-0.208-0.21-0.439-0.374-0.694-0.491c-0.255-0.117-0.553-0.176-0.893-0.176c-0.216,0-0.418,0.029-0.607,0.085
		c-0.188,0.057-0.353,0.138-0.494,0.246c-0.141,0.107-0.252,0.237-0.333,0.39c-0.081,0.154-0.122,0.328-0.122,0.521
		c0,0.211,0.034,0.386,0.1,0.528c0.066,0.141,0.16,0.258,0.28,0.351c0.12,0.093,0.264,0.17,0.432,0.23
		c0.169,0.061,0.352,0.114,0.551,0.158c0.203,0.044,0.369,0.087,0.498,0.127c0.128,0.041,0.227,0.083,0.295,0.127
		c0.069,0.045,0.115,0.092,0.14,0.143c0.025,0.05,0.037,0.11,0.037,0.179c0,0.161-0.061,0.278-0.183,0.351
		c-0.122,0.073-0.314,0.109-0.575,0.109c-0.212,0-0.412-0.037-0.601-0.112c-0.189-0.075-0.36-0.199-0.513-0.373l-0.629,0.546
		c0.166,0.238,0.398,0.426,0.697,0.563c0.299,0.138,0.631,0.206,0.996,0.206c0.298,0,0.555-0.032,0.768-0.097
		c0.214-0.064,0.391-0.156,0.532-0.275c0.141-0.12,0.245-0.262,0.311-0.428C41.472,93.563,41.505,93.379,41.505,93.176"/>
	<path style="clip-path:url(#SVGID_2_);fill-rule:evenodd;clip-rule:evenodd;fill:#FFFFFF;" d="M45.247,93.176
		c0-0.23-0.044-0.42-0.131-0.57c-0.087-0.149-0.2-0.272-0.339-0.369s-0.294-0.173-0.466-0.228c-0.173-0.054-0.346-0.102-0.52-0.142
		s-0.317-0.077-0.429-0.109s-0.201-0.067-0.268-0.103c-0.066-0.036-0.113-0.078-0.14-0.124c-0.027-0.047-0.04-0.104-0.04-0.173
		c0-0.049,0.01-0.095,0.031-0.139c0.021-0.045,0.056-0.085,0.106-0.122c0.049-0.036,0.114-0.065,0.192-0.087
		c0.079-0.022,0.177-0.034,0.293-0.034c0.199,0,0.378,0.038,0.538,0.112c0.16,0.075,0.31,0.183,0.451,0.325l0.629-0.594
		c-0.208-0.21-0.439-0.374-0.694-0.491c-0.255-0.117-0.553-0.176-0.893-0.176c-0.216,0-0.418,0.029-0.607,0.085
		c-0.188,0.057-0.353,0.138-0.494,0.246c-0.141,0.107-0.252,0.237-0.333,0.39c-0.081,0.154-0.122,0.328-0.122,0.521
		c0,0.211,0.034,0.386,0.1,0.528c0.066,0.141,0.16,0.258,0.28,0.351c0.121,0.093,0.264,0.17,0.433,0.23
		c0.168,0.061,0.351,0.114,0.55,0.158c0.203,0.044,0.369,0.087,0.498,0.127c0.128,0.041,0.227,0.083,0.295,0.127
		c0.069,0.045,0.116,0.092,0.141,0.143c0.024,0.05,0.037,0.11,0.037,0.179c0,0.161-0.062,0.278-0.184,0.351
		c-0.122,0.073-0.314,0.109-0.575,0.109c-0.212,0-0.412-0.037-0.601-0.112c-0.189-0.075-0.36-0.199-0.513-0.373l-0.629,0.546
		c0.166,0.238,0.399,0.426,0.697,0.563c0.299,0.138,0.631,0.206,0.996,0.206c0.299,0,0.555-0.032,0.768-0.097
		c0.214-0.064,0.391-0.156,0.532-0.275c0.141-0.12,0.245-0.262,0.311-0.428C45.214,93.563,45.247,93.379,45.247,93.176"/>
	<path style="clip-path:url(#SVGID_2_);fill-rule:evenodd;clip-rule:evenodd;fill:#FFFFFF;" d="M13.728,84.742H12.86l-1.712,4.242
		h0.958l0.351-0.945h1.635l0.351,0.945h0.984L13.728,84.742z M12.764,87.233l0.287-0.77c0.047-0.125,0.091-0.246,0.131-0.363
		c0.041-0.117,0.071-0.216,0.093-0.297c0.021,0.081,0.052,0.18,0.092,0.297c0.041,0.117,0.084,0.238,0.131,0.363l0.288,0.77H12.764z
		"/>
	<path style="clip-path:url(#SVGID_2_);fill-rule:evenodd;clip-rule:evenodd;fill:#FFFFFF;" d="M26.693,87.372
		c0.285-0.105,0.603-0.296,0.745-0.5c0.143-0.204,0.214-0.466,0.214-0.785c0-0.226-0.04-0.423-0.121-0.591
		c-0.081-0.167-0.192-0.308-0.332-0.421c-0.141-0.113-0.305-0.197-0.492-0.251c-0.187-0.055-0.385-0.082-0.594-0.082h-2.082v4.242
		h0.894v-1.527l0.797,0.036l0.934,1.491h1.029L26.693,87.372z M26.094,86.657h-1.169v-1.091h1.169c0.2,0,0.357,0.042,0.469,0.124
		c0.113,0.083,0.17,0.222,0.17,0.415C26.733,86.473,26.52,86.657,26.094,86.657"/>
</g>
</svg>
