<?xml version="1.0" encoding="iso-8859-1"?>
<!-- Generator: Adobe Illustrator 17.0.0, SVG Export Plug-In . SVG Version: 6.00 Build 0)  -->
<!DOCTYPE svg PUBLIC "-//W3C//DTD SVG 1.1//EN" "http://www.w3.org/Graphics/SVG/1.1/DTD/svg11.dtd">
<svg version="1.1" id="Layer_1" xmlns="http://www.w3.org/2000/svg" xmlns:xlink="http://www.w3.org/1999/xlink" x="0px" y="0px"
	 width="100.5px" height="77.218px" viewBox="0 0 100.5 77.218" style="enable-background:new 0 0 100.5 77.218;"
	 xml:space="preserve">
<g>
	<defs>
		<rect id="SVGID_1_" width="100.5" height="77.218"/>
	</defs>
	<clipPath id="SVGID_2_">
		<use xlink:href="#SVGID_1_"  style="overflow:visible;"/>
	</clipPath>
	<path style="clip-path:url(#SVGID_2_);fill-rule:evenodd;clip-rule:evenodd;" d="M13.824,55.824c2.527,0,6.021-1.466,6.135-3.889
		H0.108v-26.6h21.078c0.115-2.319-2.048-4.294-4.086-4.294v-9.827c6.696,0,26.859-4.149,33.171-11.054
		c6.27,6.905,23.501,11.054,33.14,11.054v9.827c-2.038,0-4.201,1.975-4.097,4.294h21.078v26.6H80.541
		c0.115,2.423,3.609,3.889,6.136,3.889C72.358,68.926,61.252,77.11,50.25,77.11C39.249,77.12,28.153,68.926,13.824,55.824"/>
	<path style="clip-path:url(#SVGID_2_);fill:none;stroke:#231F20;stroke-width:0.216;stroke-miterlimit:10;" d="M13.824,55.824
		c2.527,0,6.021-1.466,6.135-3.889H0.108v-26.6h21.078c0.115-2.319-2.048-4.294-4.086-4.294v-9.827
		c6.696,0,26.859-4.149,33.171-11.054c6.27,6.905,23.501,11.054,33.14,11.054v9.827c-2.038,0-4.201,1.975-4.097,4.294h21.078v26.6
		H80.541c0.115,2.423,3.609,3.889,6.136,3.889C72.358,68.926,61.252,77.11,50.25,77.11C39.249,77.12,28.153,68.926,13.824,55.824z"
		/>
	<polygon style="clip-path:url(#SVGID_2_);fill-rule:evenodd;clip-rule:evenodd;fill:#FFFFFF;" points="7.065,32.095 9.322,32.095 
		9.322,36.982 10.954,36.982 10.954,32.095 13.211,32.095 13.211,45.176 10.954,45.176 10.954,39.551 9.322,39.551 9.322,45.176 
		7.065,45.176 	"/>
	<polygon style="clip-path:url(#SVGID_2_);fill:none;stroke:#231F20;stroke-width:0.216;stroke-miterlimit:10;" points="
		7.065,32.095 9.322,32.095 9.322,36.982 10.954,36.982 10.954,32.095 13.211,32.095 13.211,45.176 10.954,45.176 10.954,39.551 
		9.322,39.551 9.322,45.176 7.065,45.176 	"/>
	<path style="clip-path:url(#SVGID_2_);fill-rule:evenodd;clip-rule:evenodd;fill:#FFFFFF;" d="M18.358,32.095h-1.56h-1.612
		l-1.778,13.081h2.402l0.291-3.078h0.697h0.78l0.385,3.078h1.996L18.358,32.095z M16.798,39.457h-0.447l0.385-4.107l0.062,0.499
		l0.458,3.608H16.798z"/>
	<polygon style="clip-path:url(#SVGID_2_);fill:none;stroke:#231F20;stroke-width:0.216;stroke-miterlimit:10;" points="
		15.186,32.095 18.358,32.095 19.959,45.176 17.962,45.176 17.578,42.098 16.101,42.098 15.81,45.176 13.408,45.176 	"/>
	<polygon style="clip-path:url(#SVGID_2_);fill:none;stroke:#231F20;stroke-width:0.216;stroke-miterlimit:10;" points="
		17.255,39.457 16.735,35.35 16.35,39.457 	"/>
	<path style="clip-path:url(#SVGID_2_);fill-rule:evenodd;clip-rule:evenodd;fill:#FFFFFF;" d="M26.302,43.044v-2.277
		c0-1.061-0.322-2.07-1.04-2.475c0.759-0.364,1.04-1.591,1.04-2.486v-1.237c0-1.976-0.925-2.475-2.496-2.475h-0.363h-2.871v13.082
		h2.049v-5.221h0.447c0.125,0,0.25,0.021,0.375,0.063c0.447,0.166,0.821,0.593,0.821,1.154v3.244c0,0.25,0.031,0.51,0.083,0.76
		h2.194C26.365,44.552,26.302,43.761,26.302,43.044 M24.264,36.108c0,0.593-0.322,1.092-0.821,1.331
		c-0.198,0.083-0.416,0.135-0.666,0.135h-0.156v-3.92h0.208c0.218,0,0.426,0.052,0.614,0.145c0.478,0.24,0.821,0.718,0.821,1.238
		V36.108z"/>
	<path style="clip-path:url(#SVGID_2_);fill:none;stroke:#231F20;stroke-width:0.216;stroke-miterlimit:10;" d="M20.572,32.095
		h3.234c1.57,0,2.496,0.499,2.496,2.475v1.237c0,0.895-0.281,2.122-1.04,2.486c0.717,0.405,1.04,1.414,1.04,2.474v2.278
		c0,0.717,0.062,1.508,0.239,2.131h-2.194c-0.052-0.249-0.083-0.509-0.083-0.759v-3.244c0-0.718-0.593-1.217-1.196-1.217h-0.447
		v5.22h-2.049V32.095z"/>
	<path style="clip-path:url(#SVGID_2_);fill:none;stroke:#231F20;stroke-width:0.216;stroke-miterlimit:10;" d="M22.621,37.575
		h0.156c0.873,0,1.487-0.655,1.487-1.466v-1.071c0-0.718-0.676-1.383-1.435-1.383h-0.208V37.575z"/>
	<polygon style="clip-path:url(#SVGID_2_);fill-rule:evenodd;clip-rule:evenodd;fill:#FFFFFF;" points="27.176,32.095 29.36,32.095 
		29.36,43.201 31.263,43.201 31.263,45.176 27.176,45.176 	"/>
	<polygon style="clip-path:url(#SVGID_2_);fill:none;stroke:#231F20;stroke-width:0.216;stroke-miterlimit:10;" points="
		27.176,32.095 29.36,32.095 29.36,43.201 31.263,43.201 31.263,45.176 27.176,45.176 	"/>
	<polygon style="clip-path:url(#SVGID_2_);fill-rule:evenodd;clip-rule:evenodd;fill:#FFFFFF;" points="31.834,32.095 
		36.337,32.095 36.337,33.748 34.08,33.748 34.08,37.138 36.337,37.138 36.337,39.176 34.08,39.176 34.08,43.367 36.337,43.367 
		36.337,45.176 31.834,45.176 	"/>
	<polygon style="clip-path:url(#SVGID_2_);fill:none;stroke:#231F20;stroke-width:0.216;stroke-miterlimit:10;" points="
		31.834,32.095 36.337,32.095 36.337,33.748 34.08,33.748 34.08,37.138 36.337,37.138 36.337,39.176 34.08,39.176 34.08,43.367 
		36.337,43.367 36.337,45.176 31.834,45.176 	"/>
	<polygon style="clip-path:url(#SVGID_2_);fill-rule:evenodd;clip-rule:evenodd;fill:#FFFFFF;" points="36.545,32.095 
		38.791,32.095 39.488,35.88 40.434,32.095 42.68,32.095 40.424,39.041 40.528,45.176 38.406,45.176 38.396,39 	"/>
	<polygon style="clip-path:url(#SVGID_2_);fill:none;stroke:#231F20;stroke-width:0.216;stroke-miterlimit:10;" points="
		36.545,32.095 38.791,32.095 39.488,35.88 40.434,32.095 42.68,32.095 40.424,39.041 40.528,45.176 38.406,45.176 38.396,39 	"/>
	
		<rect x="42.243" y="37.491" style="clip-path:url(#SVGID_2_);fill-rule:evenodd;clip-rule:evenodd;fill:#FFFFFF;" width="3.837" height="1.893"/>
	
		<rect x="42.243" y="37.491" style="clip-path:url(#SVGID_2_);fill:none;stroke:#231F20;stroke-width:0.216;stroke-miterlimit:10;" width="3.837" height="1.893"/>
	<path style="clip-path:url(#SVGID_2_);fill-rule:evenodd;clip-rule:evenodd;fill:#FFFFFF;" d="M50.208,32.095h-0.54h-2.787v13.081
		h2.787h0.54c1.373,0,2.184-1.206,2.184-2.34v-8.932C52.392,32.895,51.352,32.095,50.208,32.095 M50.354,41.703
		c0,0.634-0.229,1.04-0.686,1.206c-0.146,0.063-0.323,0.083-0.531,0.083h-0.156v-9.421h0.188c0.187,0,0.353,0.021,0.499,0.083
		c0.436,0.156,0.686,0.552,0.686,1.113V41.703z"/>
	<path style="clip-path:url(#SVGID_2_);fill:none;stroke:#231F20;stroke-width:0.216;stroke-miterlimit:10;" d="M46.881,32.095
		h3.328c1.143,0,2.183,0.801,2.183,1.809v8.933c0,1.133-0.811,2.339-2.183,2.339h-3.328V32.095z"/>
	<path style="clip-path:url(#SVGID_2_);fill:none;stroke:#231F20;stroke-width:0.216;stroke-miterlimit:10;" d="M48.981,33.571
		h0.187c0.738,0,1.186,0.447,1.186,1.196v6.936c0,0.842-0.416,1.289-1.217,1.289h-0.156V33.571z"/>
	<path style="clip-path:url(#SVGID_2_);fill-rule:evenodd;clip-rule:evenodd;fill:#FFFFFF;" d="M57.529,32.095h-1.56h-1.622
		l-1.768,13.081h2.402l0.291-3.078h0.697h0.78l0.385,3.078h1.996L57.529,32.095z M55.969,39.457h-0.447l0.385-4.107l0.062,0.499
		l0.447,3.608H55.969z"/>
	<polygon style="clip-path:url(#SVGID_2_);fill:none;stroke:#231F20;stroke-width:0.216;stroke-miterlimit:10;" points="
		54.347,32.095 57.529,32.095 59.13,45.176 57.134,45.176 56.749,42.098 55.272,42.098 54.981,45.176 52.579,45.176 	"/>
	<polygon style="clip-path:url(#SVGID_2_);fill:none;stroke:#231F20;stroke-width:0.216;stroke-miterlimit:10;" points="
		56.416,39.457 55.906,35.35 55.522,39.457 	"/>
	<polygon style="clip-path:url(#SVGID_2_);fill-rule:evenodd;clip-rule:evenodd;fill:#FFFFFF;" points="58.642,32.095 
		60.742,32.095 61.481,39.031 62.271,32.095 64.372,32.095 62.666,45.176 60.42,45.176 	"/>
	<polygon style="clip-path:url(#SVGID_2_);fill:none;stroke:#231F20;stroke-width:0.216;stroke-miterlimit:10;" points="
		58.642,32.095 60.742,32.095 61.481,39.031 62.271,32.095 64.372,32.095 62.666,45.176 60.42,45.176 	"/>
	
		<rect x="64.881" y="32.094" style="clip-path:url(#SVGID_2_);fill-rule:evenodd;clip-rule:evenodd;fill:#FFFFFF;" width="2.257" height="13.081"/>
	
		<rect x="64.881" y="32.094" style="clip-path:url(#SVGID_2_);fill:none;stroke:#231F20;stroke-width:0.216;stroke-miterlimit:10;" width="2.257" height="13.081"/>
	<path style="clip-path:url(#SVGID_2_);fill-rule:evenodd;clip-rule:evenodd;fill:#FFFFFF;" d="M71.296,32.095h-0.551h-2.797v13.081
		h2.797h0.551c1.363,0,2.184-1.206,2.184-2.34v-8.932C73.48,32.895,72.44,32.095,71.296,32.095 M71.442,41.703
		c0,0.634-0.239,1.04-0.697,1.206c-0.156,0.052-0.332,0.083-0.54,0.083h-0.146v-9.421h0.177c0.197,0,0.364,0.021,0.509,0.083
		c0.447,0.156,0.697,0.552,0.697,1.113V41.703z"/>
	<path style="clip-path:url(#SVGID_2_);fill:none;stroke:#231F20;stroke-width:0.216;stroke-miterlimit:10;" d="M67.949,32.095
		h3.348c1.144,0,2.184,0.801,2.184,1.809v8.933c0,1.133-0.821,2.339-2.184,2.339h-3.348V32.095z"/>
	<path style="clip-path:url(#SVGID_2_);fill:none;stroke:#231F20;stroke-width:0.216;stroke-miterlimit:10;" d="M70.059,33.571
		h0.177c0.749,0,1.206,0.447,1.206,1.196v6.936c0,0.842-0.426,1.289-1.237,1.289h-0.146V33.571z"/>
	<path style="clip-path:url(#SVGID_2_);fill-rule:evenodd;clip-rule:evenodd;fill:#FFFFFF;" d="M86.063,42.254
		c0,1.581-1.144,2.88-2.579,2.922v-1.633c0.458,0,0.822-0.322,0.822-0.717v-8.381c0-0.395-0.364-0.718-0.822-0.718v-1.632
		c1.435,0.041,2.579,1.341,2.579,2.922V42.254z"/>
	<path style="clip-path:url(#SVGID_2_);fill-rule:evenodd;clip-rule:evenodd;fill:#FFFFFF;" d="M83.484,45.176h-0.073
		c-1.466,0-2.662-1.31-2.662-2.922v-7.237c0-1.612,1.196-2.922,2.662-2.922h0.073v1.632c-0.447,0-0.811,0.323-0.811,0.718v8.381
		c0,0.395,0.364,0.717,0.811,0.717V45.176z"/>
	<path style="clip-path:url(#SVGID_2_);fill:none;stroke:#231F20;stroke-width:0.216;stroke-miterlimit:10;" d="M86.063,42.254
		c0,1.612-1.196,2.922-2.652,2.922c-1.466,0-2.662-1.31-2.662-2.922v-7.237c0-1.612,1.196-2.922,2.662-2.922
		c1.456,0,2.652,1.31,2.652,2.922V42.254z"/>
	<path style="clip-path:url(#SVGID_2_);fill:none;stroke:#231F20;stroke-width:0.216;stroke-miterlimit:10;" d="M83.484,33.727
		L83.484,33.727c0.458,0,0.821,0.322,0.821,0.718v8.381c0,0.395-0.363,0.717-0.821,0.717c-0.447,0-0.811-0.322-0.811-0.717v-8.381
		C82.673,34.049,83.037,33.727,83.484,33.727z"/>
	<path style="clip-path:url(#SVGID_2_);fill-rule:evenodd;clip-rule:evenodd;fill:#FFFFFF;" d="M77.266,33.727L77.266,33.727
		c0.374,0,0.686,0.322,0.686,0.718v1.83h1.997v-1.259c0-1.611-1.248-2.922-2.766-2.922c-1.518,0-2.766,1.311-2.766,2.922v1.799
		c0,0.604,0.613,1.227,1.102,1.571l1.57,1.112c0.343,0.239,0.863,0.614,0.863,1.352v1.976c0,0.395-0.312,0.717-0.686,0.717
		c-0.385,0-0.697-0.322-0.697-0.717v-2.735h-2.152v2.163c0,1.612,1.248,2.922,2.766,2.922c1.518,0,2.766-1.31,2.766-2.922v-2.413
		c0-0.561-0.666-1.206-1.217-1.591l-1.32-0.904c-0.375-0.26-0.843-0.624-0.843-1.092v-1.809
		C76.568,34.049,76.881,33.727,77.266,33.727"/>
	<path style="clip-path:url(#SVGID_2_);fill:none;stroke:#231F20;stroke-width:0.216;stroke-miterlimit:10;" d="M77.266,33.727
		L77.266,33.727c0.374,0,0.686,0.322,0.686,0.718v1.83h1.997v-1.259c0-1.611-1.248-2.922-2.766-2.922
		c-1.518,0-2.766,1.311-2.766,2.922v1.799c0,0.604,0.613,1.227,1.102,1.571l1.57,1.112c0.343,0.239,0.863,0.614,0.863,1.352v1.976
		c0,0.395-0.312,0.717-0.686,0.717c-0.385,0-0.697-0.322-0.697-0.717v-2.735h-2.152v2.163c0,1.612,1.248,2.922,2.766,2.922
		c1.518,0,2.766-1.31,2.766-2.922v-2.413c0-0.561-0.666-1.206-1.217-1.591l-1.32-0.904c-0.375-0.26-0.843-0.624-0.843-1.092v-1.809
		C76.568,34.049,76.881,33.727,77.266,33.727z"/>
	<polygon style="clip-path:url(#SVGID_2_);fill-rule:evenodd;clip-rule:evenodd;fill:#FFFFFF;" points="87.092,32.095 
		89.827,32.095 91.179,37.877 91.179,32.095 93.144,32.095 93.144,45.176 90.524,45.176 89.192,37.897 89.172,45.176 87.092,45.176 
			"/>
	<polygon style="clip-path:url(#SVGID_2_);fill:none;stroke:#231F20;stroke-width:0.216;stroke-miterlimit:10;" points="
		87.092,32.095 89.827,32.095 91.179,37.877 91.179,32.095 93.144,32.095 93.144,45.176 90.524,45.176 89.192,37.897 89.172,45.176 
		87.092,45.176 	"/>
	<path style="clip-path:url(#SVGID_2_);fill-rule:evenodd;clip-rule:evenodd;fill:#F9A13A;" d="M50.25,27.79H2.562v21.691H50.25
		h47.688V27.79H50.25z M95.484,47.027H50.25H5.016V30.244H50.25h45.234V47.027z"/>
	
		<rect x="2.562" y="27.789" style="clip-path:url(#SVGID_2_);fill:none;stroke:#231F20;stroke-width:0.216;stroke-miterlimit:10;" width="95.376" height="21.691"/>
	
		<rect x="5.016" y="30.243" style="clip-path:url(#SVGID_2_);fill:none;stroke:#231F20;stroke-width:0.216;stroke-miterlimit:10;" width="90.468" height="16.783"/>
	<path style="clip-path:url(#SVGID_2_);fill-rule:evenodd;clip-rule:evenodd;fill:#F9A13A;" d="M50.25,6.098
		c4.503,4.7,22.107,9.203,28.451,9.203v3.275c-2.174,1.311-4.201,3.401-4.097,6.759h2.256v-0.104
		c-0.073-2.246,1.757-4.783,3.889-5.521v-6.146c-9.421,0-25.591-5.012-30.499-10.336c-4.908,5.324-22.482,10.336-30.499,10.336
		v6.146c2.132,0.738,3.962,3.275,3.899,5.521l-0.01,0.104h2.256c0.104-3.358-1.923-5.448-4.097-6.759v-3.275
		C28.153,15.301,45.747,10.798,50.25,6.098"/>
	<path style="clip-path:url(#SVGID_2_);fill-rule:evenodd;clip-rule:evenodd;fill:#F9A13A;" d="M75.425,51.935
		c0.062,2.028,0.821,4.097,2.537,5.532C71.328,63.197,58.028,72.41,50.25,72.41c-7.768,0-21.078-9.213-27.712-14.943
		c1.726-1.435,2.475-3.504,2.537-5.532h-2.257c-0.114,2.069-1.747,4.451-3.878,4.815c9.047,8.017,20.204,18.01,31.31,18.01
		s22.263-9.993,31.31-18.01c-2.132-0.364-3.764-2.746-3.878-4.815H75.425z"/>
	<path style="clip-path:url(#SVGID_2_);fill:none;stroke:#231F20;stroke-width:0.216;stroke-miterlimit:10;" d="M50.25,6.098
		c4.503,4.7,22.107,9.203,28.451,9.203v3.275c-2.174,1.311-4.201,3.401-4.097,6.759h2.256v-0.104
		c-0.073-2.246,1.757-4.783,3.889-5.521v-6.146c-9.421,0-25.591-5.012-30.499-10.336c-4.908,5.324-22.482,10.336-30.499,10.336
		v6.146c2.132,0.738,3.962,3.275,3.899,5.521l-0.01,0.104h2.256c0.104-3.358-1.923-5.448-4.097-6.759v-3.275
		C28.153,15.301,45.747,10.798,50.25,6.098z"/>
	<path style="clip-path:url(#SVGID_2_);fill:none;stroke:#231F20;stroke-width:0.216;stroke-miterlimit:10;" d="M75.425,51.935
		c0.062,2.028,0.821,4.097,2.537,5.532C71.328,63.197,58.028,72.41,50.25,72.41c-7.768,0-21.078-9.213-27.712-14.943
		c1.726-1.435,2.475-3.504,2.537-5.532h-2.257c-0.114,2.069-1.747,4.451-3.878,4.815c9.047,8.017,20.204,18.01,31.31,18.01
		s22.263-9.993,31.31-18.01c-2.132-0.364-3.764-2.746-3.878-4.815H75.425z"/>
	<path style="clip-path:url(#SVGID_2_);fill-rule:evenodd;clip-rule:evenodd;fill:#F9A13A;" d="M43.429,11.797l-1.924,0.842
		l-2.433,1.082c-1.259,0.551-1.612,0.873-1.612,2.797v7.019c0,0.988,0.821,1.799,1.809,1.799h2.236h2.049
		c0.998,0,1.809-0.811,1.809-1.799v-9.91C45.363,12.639,44.333,11.391,43.429,11.797 M43.096,22.289
		c0,0.198-0.156,0.354-0.354,0.354h-1.237h-1.248c-0.197,0-0.353-0.156-0.353-0.354v-5.615c0-0.822,0.322-0.77,1.466-1.373
		c0.041-0.021,0.083-0.041,0.135-0.073c0.811-0.416,1.591-0.748,1.591-0.447V22.289z"/>
	<path style="clip-path:url(#SVGID_2_);fill:none;stroke:#231F20;stroke-width:0.216;stroke-miterlimit:10;" d="M40.257,22.642
		h2.485c0.198,0,0.354-0.156,0.354-0.354v-7.507c0-0.312-0.863,0.062-1.726,0.52c-1.144,0.603-1.467,0.551-1.467,1.372v5.615
		C39.903,22.486,40.059,22.642,40.257,22.642z"/>
	<path style="clip-path:url(#SVGID_2_);fill:none;stroke:#231F20;stroke-width:0.216;stroke-miterlimit:10;" d="M39.269,25.335
		h4.284c0.999,0,1.81-0.811,1.81-1.799v-9.91c0-0.988-1.03-2.235-1.935-1.83l-4.357,1.924c-1.258,0.551-1.611,0.873-1.611,2.797
		v7.019C37.46,24.524,38.281,25.335,39.269,25.335z"/>
	<path style="clip-path:url(#SVGID_2_);fill-rule:evenodd;clip-rule:evenodd;fill:#F9A13A;" d="M61.429,13.721l-2.433-1.082
		l-1.924-0.842c-0.905-0.406-1.934,0.842-1.934,1.83v9.91c0,0.988,0.811,1.799,1.809,1.799h2.049h2.235
		c0.999,0,1.81-0.811,1.81-1.799v-7.019C63.041,14.594,62.687,14.272,61.429,13.721 M60.597,22.289c0,0.198-0.156,0.354-0.354,0.354
		h-1.247h-1.238c-0.197,0-0.353-0.156-0.353-0.354v-7.508c0-0.301,0.78,0.031,1.591,0.447c0.052,0.032,0.093,0.052,0.135,0.073
		c1.144,0.603,1.466,0.551,1.466,1.373V22.289z"/>
	<path style="clip-path:url(#SVGID_2_);fill:none;stroke:#231F20;stroke-width:0.216;stroke-miterlimit:10;" d="M60.243,22.642
		h-2.485c-0.198,0-0.354-0.156-0.354-0.354v-7.507c0-0.312,0.863,0.062,1.726,0.52c1.144,0.603,1.467,0.551,1.467,1.372v5.615
		C60.597,22.486,60.441,22.642,60.243,22.642z"/>
	<path style="clip-path:url(#SVGID_2_);fill:none;stroke:#231F20;stroke-width:0.216;stroke-miterlimit:10;" d="M61.231,25.335
		h-4.284c-0.998,0-1.81-0.811-1.81-1.799v-9.91c0-0.988,1.03-2.235,1.935-1.83l4.357,1.924c1.258,0.551,1.611,0.873,1.611,2.797
		v7.019C63.04,24.524,62.229,25.335,61.231,25.335z"/>
	<path style="clip-path:url(#SVGID_2_);fill-rule:evenodd;clip-rule:evenodd;fill:#F9A13A;" d="M73.002,20.251v-1.83
		c0-0.978-0.874-1.685-1.695-1.893l-2.527-0.624l-3.951-0.967v10.399h2.402l-0.011-2.714h1.56h1.591l-0.01,2.714h2.641v-1.945
		c0-0.811-0.489-1.497-1.061-1.726C72.492,21.436,73.002,20.906,73.002,20.251 M70.371,20.23H68.78h-1.581l-0.01-2.579l1.591,0.343
		l0.873,0.187c0.416,0.094,0.718,0.5,0.718,1.061V20.23z"/>
	<path style="clip-path:url(#SVGID_2_);fill:none;stroke:#231F20;stroke-width:0.216;stroke-miterlimit:10;" d="M64.829,25.335
		h2.402l-0.01-2.714h3.15l-0.01,2.714h2.641V23.39c0-0.811-0.488-1.497-1.06-1.726c0.551-0.228,1.06-0.759,1.06-1.414v-1.83
		c0-0.978-0.873-1.685-1.695-1.893l-6.478-1.591V25.335z"/>
	<path style="clip-path:url(#SVGID_2_);fill:none;stroke:#231F20;stroke-width:0.216;stroke-miterlimit:10;" d="M67.2,20.23
		l-0.01-2.579l2.464,0.53c0.416,0.094,0.718,0.5,0.718,1.061v0.988H67.2z"/>
	<path style="clip-path:url(#SVGID_2_);fill-rule:evenodd;clip-rule:evenodd;fill:#F9A13A;" d="M54.545,11.048v2.579l-2.953-1.466
		v13.175h-2.683V12.161l-2.953,1.466v-2.579c1.851-0.926,3.359-1.893,4.294-2.87C51.186,9.155,52.694,10.122,54.545,11.048"/>
	<path style="clip-path:url(#SVGID_2_);fill:none;stroke:#231F20;stroke-width:0.216;stroke-miterlimit:10;" d="M54.545,11.048
		v2.579l-2.953-1.466v13.175h-2.683V12.161l-2.953,1.466v-2.579c1.851-0.926,3.359-1.893,4.294-2.87
		C51.186,9.155,52.694,10.122,54.545,11.048z"/>
	<path style="clip-path:url(#SVGID_2_);fill-rule:evenodd;clip-rule:evenodd;fill:#F9A13A;" d="M27.862,25.335h2.714v-2.984
		l1.726,2.89l1.695-3.286v3.38h2.548V14.853h-0.894c-0.572,0.167-1.144,0.323-1.716,0.468l-1.83,4.492l-1.695-3.639
		c-0.874,0.187-1.727,0.364-2.548,0.509V25.335z"/>
	<path style="clip-path:url(#SVGID_2_);fill:none;stroke:#231F20;stroke-width:0.216;stroke-miterlimit:10;" d="M27.862,25.335
		h2.714v-2.984l1.726,2.89l1.695-3.286v3.38h2.548V14.853h-0.894c-0.572,0.167-1.144,0.323-1.716,0.468l-1.83,4.492l-1.695-3.639
		c-0.874,0.187-1.727,0.364-2.548,0.509V25.335z"/>
	<path style="clip-path:url(#SVGID_2_);fill-rule:evenodd;clip-rule:evenodd;fill:#F9A13A;" d="M29.13,51.935h4.274l0.021,2.34
		H30.18v2.371c0.011,0.623,0.291,1.039,0.78,1.362l3.411,2.225v3.286l-6.083-4.315c-0.489-0.344-0.874-0.947-0.874-1.529V53.63
		C27.414,52.59,28.09,51.935,29.13,51.935"/>
	<path style="clip-path:url(#SVGID_2_);fill:none;stroke:#231F20;stroke-width:0.216;stroke-miterlimit:10;" d="M29.13,51.935h4.274
		l0.021,2.34H30.18v2.371c0.011,0.623,0.291,1.039,0.78,1.362l3.411,2.225v3.286l-6.083-4.315c-0.489-0.344-0.874-0.947-0.874-1.529
		V53.63C27.414,52.59,28.09,51.935,29.13,51.935z"/>
	<path style="clip-path:url(#SVGID_2_);fill-rule:evenodd;clip-rule:evenodd;fill:#F9A13A;" d="M34.278,51.935h2.87l1.258,3.879
		l1.664-3.879h2.922l-3.525,7.175v7.529c-0.905-0.458-1.82-1.04-2.725-1.571v-6.405L34.278,51.935z"/>
	<path style="clip-path:url(#SVGID_2_);fill:none;stroke:#231F20;stroke-width:0.216;stroke-miterlimit:10;" d="M34.278,51.935h2.87
		l1.258,3.879l1.664-3.879h2.922l-3.525,7.175v7.529c-0.905-0.458-1.82-1.04-2.725-1.571v-6.405L34.278,51.935z"/>
	<path style="clip-path:url(#SVGID_2_);fill-rule:evenodd;clip-rule:evenodd;fill:#F9A13A;" d="M44.822,51.935h5.033v2.132h-3.193
		c-0.467,0-0.8,0.603-0.8,1.164V65.9c0,0.479,0.333,1.04,0.78,1.207l3.213,1.216v2.402c-1.685-0.104-3.598-0.998-5.647-1.861
		c-0.946-0.395-1.133-0.79-1.133-2.111v-12.78C43.075,52.933,43.834,51.935,44.822,51.935"/>
	<path style="clip-path:url(#SVGID_2_);fill:none;stroke:#231F20;stroke-width:0.216;stroke-miterlimit:10;" d="M44.822,51.935
		h5.033v2.132h-3.193c-0.467,0-0.8,0.603-0.8,1.164V65.9c0,0.479,0.333,1.04,0.78,1.207l3.213,1.216v2.402
		c-1.685-0.104-3.598-0.998-5.647-1.861c-0.946-0.395-1.133-0.79-1.133-2.111v-12.78C43.075,52.933,43.834,51.935,44.822,51.935z"/>
	<path style="clip-path:url(#SVGID_2_);fill-rule:evenodd;clip-rule:evenodd;fill:#F9A13A;" d="M50.874,51.935h2.839v15.66
		l3.629-1.227v2.569c-2.35,0.925-4.565,1.674-6.468,1.747V51.935z"/>
	<path style="clip-path:url(#SVGID_2_);fill:none;stroke:#231F20;stroke-width:0.216;stroke-miterlimit:10;" d="M50.874,51.935
		h2.839v15.66l3.629-1.227v2.569c-2.35,0.925-4.565,1.674-6.468,1.747V51.935z"/>
	<path style="clip-path:url(#SVGID_2_);fill-rule:evenodd;clip-rule:evenodd;fill:#F9A13A;" d="M59.349,51.935h4.773v2.173h-2.797
		c-0.437-0.01-0.915,0.499-0.905,0.926l0.01,2.443h2.787l-0.01,2.267l-2.756-0.01v3.525c0,0.603,0.395,0.998,1.009,0.614
		l2.662-1.685v2.891c-1.591,0.988-3.338,2.017-4.939,2.787c-0.666,0.312-1.612-0.063-1.612-1.404V53.63
		C57.571,52.808,58.528,51.935,59.349,51.935"/>
	<path style="clip-path:url(#SVGID_2_);fill:none;stroke:#231F20;stroke-width:0.216;stroke-miterlimit:10;" d="M59.349,51.935
		h4.773v2.173h-2.797c-0.437-0.01-0.915,0.499-0.905,0.926l0.01,2.443h2.787l-0.01,2.267l-2.756-0.01v3.525
		c0,0.603,0.395,0.998,1.009,0.614l2.662-1.685v2.891c-1.591,0.988-3.338,2.017-4.939,2.787c-0.666,0.312-1.612-0.063-1.612-1.404
		V53.63C57.571,52.808,58.528,51.935,59.349,51.935z"/>
	<path style="clip-path:url(#SVGID_2_);fill-rule:evenodd;clip-rule:evenodd;fill:#F9A13A;" d="M66.68,51.935h6.021v2.246h-3.879
		c-0.395,0-0.728,0.094-0.717,0.551c0.02,0.458,0.332,0.583,0.655,0.583h2.485c0.842,0,1.456,0.717,1.456,1.684v1.279
		c0,1.134-0.104,1.466-0.988,2.111c-2.049,1.487-4.274,2.943-6.53,4.295v-3.11l3.795-2.433c0.51-0.333,0.707-0.686,0.718-1.175
		h-3.078c-0.676,0-1.435-0.717-1.435-1.414V53.38C65.183,52.424,65.89,51.935,66.68,51.935"/>
	<path style="clip-path:url(#SVGID_2_);fill:none;stroke:#231F20;stroke-width:0.216;stroke-miterlimit:10;" d="M66.68,51.935h6.021
		v2.246h-3.879c-0.395,0-0.728,0.094-0.717,0.551c0.02,0.458,0.332,0.583,0.655,0.583h2.485c0.842,0,1.456,0.717,1.456,1.684v1.279
		c0,1.134-0.104,1.466-0.988,2.111c-2.049,1.487-4.274,2.943-6.53,4.295v-3.11l3.795-2.433c0.51-0.333,0.707-0.686,0.718-1.175
		h-3.078c-0.676,0-1.435-0.717-1.435-1.414V53.38C65.183,52.424,65.89,51.935,66.68,51.935z"/>
</g>
</svg>
