<?xml version="1.0" encoding="iso-8859-1"?>
<!-- Generator: Adobe Illustrator 17.0.0, SVG Export Plug-In . SVG Version: 6.00 Build 0)  -->
<!DOCTYPE svg PUBLIC "-//W3C//DTD SVG 1.1//EN" "http://www.w3.org/Graphics/SVG/1.1/DTD/svg11.dtd">
<svg version="1.1" id="Layer_1" xmlns="http://www.w3.org/2000/svg" xmlns:xlink="http://www.w3.org/1999/xlink" x="0px" y="0px"
	 width="97.878px" height="62.07px" viewBox="0 0 97.878 62.07" style="enable-background:new 0 0 97.878 62.07;"
	 xml:space="preserve">
<g>
	<defs>
		<rect id="SVGID_1_" y="0" width="97.878" height="62.07"/>
	</defs>
	<clipPath id="SVGID_2_">
		<use xlink:href="#SVGID_1_"  style="overflow:visible;"/>
	</clipPath>
	<path style="clip-path:url(#SVGID_2_);fill:#57688B;" d="M30.667,0.068C30.685,0.045,30.7,0.023,30.718,0
		c0,0-0.027,0.017-0.077,0.051C30.591,0.017,30.563,0,30.563,0c0.019,0.023,0.034,0.045,0.052,0.068
		c-1.114,0.755-10.798,7.751-0.011,16.063c0,0-6.661-7.485,0.037-16.028c6.697,8.543,0.036,16.028,0.036,16.028
		C41.465,7.819,31.78,0.823,30.667,0.068"/>
	<path style="clip-path:url(#SVGID_2_);fill:#57688B;" d="M46.255,3.746c0.027-0.012,0.051-0.024,0.078-0.035
		c0,0-0.032,0.002-0.092,0.007c-0.027-0.055-0.042-0.084-0.042-0.084c0.004,0.029,0.006,0.057,0.011,0.086
		c-1.341,0.106-13.217,1.409-7.939,13.964c0,0-2.098-9.798,7.944-13.921c1.607,10.736-7.881,13.957-7.881,13.957
		C51.819,15.816,46.85,4.951,46.255,3.746"/>
	<path style="clip-path:url(#SVGID_2_);fill:#57688B;" d="M14.925,4.201c0.004-0.029,0.005-0.056,0.008-0.086
		c0,0-0.014,0.03-0.039,0.085c-0.06-0.003-0.093-0.005-0.093-0.005c0.028,0.011,0.053,0.023,0.08,0.033
		c-0.556,1.225-5.166,12.246,8.373,13.708c0,0-9.588-2.909-8.333-13.692c10.172,3.792,8.395,13.654,8.395,13.654
		C28.181,5.178,16.268,4.263,14.925,4.201"/>
	<path style="clip-path:url(#SVGID_2_);fill:#57688B;" d="M3.692,15.522c-0.011-0.027-0.024-0.051-0.035-0.079
		c0,0,0.002,0.032,0.007,0.093c-0.054,0.027-0.083,0.042-0.083,0.042c0.029-0.004,0.057-0.006,0.085-0.011
		c0.113,1.341,1.477,13.21,14.005,7.868c0,0-9.787,2.147-13.962-7.873c10.728-1.662,13.997,7.809,13.997,7.809
		C15.734,9.896,4.894,14.92,3.692,15.522"/>
	<path style="clip-path:url(#SVGID_2_);fill:#57688B;" d="M16.063,30.96c0.023,0.018,0.046,0.033,0.069,0.051
		c0,0-0.018-0.027-0.051-0.077c0.033-0.05,0.051-0.078,0.051-0.078c-0.023,0.019-0.046,0.034-0.069,0.052
		C15.309,29.794,8.313,20.11,0,30.897c0,0,7.485-6.66,16.029,0.037C7.485,37.631,0,30.971,0,30.971
		C8.313,41.758,15.309,32.073,16.063,30.96"/>
	<path style="clip-path:url(#SVGID_2_);fill:#57688B;" d="M30.729,62.001c0.018,0.023,0.033,0.045,0.051,0.068
		c0,0-0.027-0.017-0.077-0.051c-0.05,0.034-0.078,0.051-0.078,0.051c0.019-0.023,0.034-0.045,0.052-0.068
		c-1.114-0.754-10.798-7.751-0.011-16.063c0,0-6.661,7.485,0.037,16.028c6.697-8.543,0.036-16.028,0.036-16.028
		C41.527,54.25,31.842,61.247,30.729,62.001"/>
	<path style="clip-path:url(#SVGID_2_);fill:#57688B;" d="M46.317,58.324c0.027,0.012,0.051,0.024,0.078,0.035
		c0,0-0.032-0.002-0.092-0.006c-0.027,0.054-0.042,0.082-0.042,0.082c0.005-0.029,0.006-0.056,0.011-0.085
		c-1.341-0.107-13.217-1.409-7.939-13.964c0,0-2.098,9.798,7.944,13.921c1.607-10.736-7.881-13.957-7.881-13.957
		C51.881,46.254,46.912,57.119,46.317,58.324"/>
	<path style="clip-path:url(#SVGID_2_);fill:#57688B;" d="M14.987,57.869c0.003,0.03,0.004,0.057,0.008,0.086
		c0,0-0.014-0.029-0.04-0.084c-0.059,0.002-0.092,0.003-0.092,0.003c0.028-0.01,0.052-0.021,0.079-0.032
		c-0.556-1.225-5.166-12.246,8.374-13.708c0,0-9.588,2.91-8.333,13.692c10.171-3.792,8.395-13.654,8.395-13.654
		C28.242,56.893,16.33,57.807,14.987,57.869"/>
	<path style="clip-path:url(#SVGID_2_);fill:#57688B;" d="M3.754,46.547c-0.012,0.028-0.024,0.051-0.035,0.079
		c0,0,0.002-0.033,0.006-0.093c-0.053-0.027-0.082-0.042-0.082-0.042c0.029,0.005,0.056,0.007,0.085,0.011
		c0.113-1.341,1.477-13.209,14.004-7.868c0,0-9.786-2.147-13.961,7.874c10.728,1.661,13.997-7.811,13.997-7.811
		C15.796,52.173,4.956,47.15,3.754,46.547"/>
	<path style="clip-path:url(#SVGID_2_);" d="M44.5,32.425c0,3.055,0.333,5.685,3.915,5.685s3.914-2.63,3.914-5.685V22.296h2.955
		v10.478c0,4.833-1.735,8.197-6.869,8.197c-5.133,0-6.869-3.364-6.869-8.197V22.296H44.5V32.425z"/>
	<polygon style="clip-path:url(#SVGID_2_);" points="28.83,37.518 37.876,22.335 23.728,22.335 23.728,25.208 32.425,25.208 
		23.38,40.389 37.939,40.389 37.939,37.518 	"/>
	<rect x="59.919" y="5.041" style="clip-path:url(#SVGID_2_);" width="2.872" height="35.349"/>
	<rect x="76.105" y="5.041" style="clip-path:url(#SVGID_2_);" width="2.871" height="35.349"/>
	<path style="clip-path:url(#SVGID_2_);" d="M95.007,22.335v11.28c0,1.156-0.417,2.186-1.241,3.061
		c-0.826,0.884-1.853,1.314-3.136,1.314c-1.171,0-2.173-0.419-3.059-1.28c-0.873-0.845-1.317-1.887-1.317-3.095v-11.28h-2.87v11.28
		c0,2.035,0.703,3.77,2.09,5.156c1.386,1.387,3.122,2.09,5.156,2.09c1.641,0,3.111-0.493,4.377-1.469v4.816
		c0,1.211-0.418,2.278-1.242,3.17c-0.815,0.885-1.914,1.333-3.263,1.333h-0.257v2.873h0.257c2.033,0,3.789-0.726,5.221-2.157
		c1.431-1.431,2.154-3.187,2.154-5.219V22.335H95.007z"/>
	<rect x="68.187" y="22.336" style="clip-path:url(#SVGID_2_);" width="2.873" height="18.054"/>
	<path style="clip-path:url(#SVGID_2_);" d="M69.626,12.959c-1.422,0-2.577,1.156-2.577,2.577c0,1.421,1.155,2.576,2.577,2.576
		c1.419,0,2.574-1.155,2.574-2.576C72.2,14.115,71.045,12.959,69.626,12.959"/>
</g>
</svg>
