<?xml version="1.0" encoding="iso-8859-1"?>
<!-- Generator: Adobe Illustrator 17.0.0, SVG Export Plug-In . SVG Version: 6.00 Build 0)  -->
<!DOCTYPE svg PUBLIC "-//W3C//DTD SVG 1.1//EN" "http://www.w3.org/Graphics/SVG/1.1/DTD/svg11.dtd">
<svg version="1.1" id="Layer_1" xmlns="http://www.w3.org/2000/svg" xmlns:xlink="http://www.w3.org/1999/xlink" x="0px" y="0px"
	 width="158.374px" height="60.415px" viewBox="0 0 158.374 60.415" style="enable-background:new 0 0 158.374 60.415;"
	 xml:space="preserve">
<g>
	<defs>
		<rect id="SVGID_1_" y="0" width="158.374" height="60.415"/>
	</defs>
	<clipPath id="SVGID_2_">
		<use xlink:href="#SVGID_1_"  style="overflow:visible;"/>
	</clipPath>
	<path style="clip-path:url(#SVGID_2_);fill:#1E3D71;" d="M2.794,52.379c1.963,0,2.581,1.245,2.581,2.156
		c0,0.961-0.567,2.175-2.712,2.175H1.458v3.544h-0.83v-7.875H2.794z M1.458,56.002h0.688c1.083,0,2.4-0.041,2.4-1.458
		c0-1.497-1.418-1.457-2.511-1.457H1.458V56.002z"/>
	<path style="clip-path:url(#SVGID_2_);fill:#1E3D71;" d="M13.3,57.783c0,2.115-1.386,2.632-2.5,2.632s-2.5-0.517-2.5-2.632v-5.405
		h0.83v4.828c0,1.225,0.091,2.42,1.67,2.42s1.67-1.195,1.67-2.42v-4.828h0.83V57.783z"/>
	<path style="clip-path:url(#SVGID_2_);fill:#1E3D71;" d="M16.538,60.252v-7.874h2.166c2.014,0,2.541,1.143,2.541,2.024
		c0,0.84-0.487,1.499-1.307,1.701c0.941,0.283,1.489,0.951,1.489,1.954c0,0.931-0.406,2.195-2.601,2.195H16.538z M18.107,55.769
		c1.012,0,2.308,0.021,2.308-1.356c0-1.387-1.225-1.327-2.248-1.327h-0.799v2.683H18.107z M17.368,59.544h0.982
		c1.913,0,2.247-0.577,2.247-1.437c0-0.941-0.435-1.629-2.166-1.629h-1.063V59.544z"/>
	<polygon style="clip-path:url(#SVGID_2_);fill:#1E3D71;" points="25.384,59.544 28.744,59.544 28.744,60.252 24.554,60.252 
		24.554,52.378 25.384,52.378 	"/>
	<rect x="31.71" y="52.38" style="clip-path:url(#SVGID_2_);fill:#1E3D71;" width="0.83" height="7.874"/>
	<path style="clip-path:url(#SVGID_2_);fill:#1E3D71;" d="M40.201,54.767c-0.212-0.91-0.618-1.873-1.701-1.873
		c-1.093,0-2.024,1.033-2.024,3.422c0,2.388,0.931,3.42,2.024,3.42c1.032,0,1.509-0.941,1.701-1.872l0.77,0.203
		c-0.224,1.296-1.053,2.348-2.471,2.348c-1.639,0-2.854-1.508-2.854-4.099s1.215-4.099,2.854-4.099c1.398,0,2.207,1.032,2.44,2.368
		L40.201,54.767z"/>
	<path style="clip-path:url(#SVGID_2_);fill:#1E3D71;" d="M50.939,52.379c2.45,0,2.864,1.296,2.864,2.206
		c0,0.941-0.597,1.7-1.487,1.994l1.508,3.675h-0.921l-1.427-3.544h-1.569v3.544h-0.83v-7.875H50.939z M49.907,56.002h1.114
		c1.629,0,1.954-0.719,1.954-1.448c0-1.083-0.679-1.467-1.803-1.467h-1.265V56.002z"/>
	<polygon style="clip-path:url(#SVGID_2_);fill:#1E3D71;" points="61.142,53.087 57.701,53.087 57.701,55.768 60.16,55.768 
		60.16,56.478 57.701,56.478 57.701,59.545 61.375,59.545 61.375,60.253 56.871,60.253 56.871,52.379 61.142,52.379 	"/>
	<polygon style="clip-path:url(#SVGID_2_);fill:#1E3D71;" points="65.372,59.544 68.732,59.544 68.732,60.252 64.542,60.252 
		64.542,52.378 65.372,52.378 	"/>
	<path style="clip-path:url(#SVGID_2_);fill:#1E3D71;" d="M76.728,60.254h-0.85l-0.719-2.512h-2.56l-0.679,2.512h-0.85l2.217-7.876
		h1.174L76.728,60.254z M73.864,52.905h-0.02l-1.032,4.13h2.156L73.864,52.905z"/>
	<polygon style="clip-path:url(#SVGID_2_);fill:#1E3D71;" points="83.418,53.087 81.303,53.087 81.303,60.253 80.472,60.253 
		80.472,53.087 78.357,53.087 78.357,52.379 83.418,52.379 	"/>
	<rect x="86.232" y="52.38" style="clip-path:url(#SVGID_2_);fill:#1E3D71;" width="0.83" height="7.874"/>
	<path style="clip-path:url(#SVGID_2_);fill:#1E3D71;" d="M95.877,56.316c0,2.591-1.215,4.1-2.854,4.1s-2.854-1.509-2.854-4.1
		c0-2.591,1.215-4.1,2.854-4.1S95.877,53.725,95.877,56.316 M90.999,56.316c0,2.389,0.931,3.421,2.024,3.421
		c1.093,0,2.024-1.032,2.024-3.421s-0.931-3.422-2.024-3.422C91.93,52.894,90.999,53.927,90.999,56.316"/>
	<polygon style="clip-path:url(#SVGID_2_);fill:#1E3D71;" points="99.814,60.253 98.984,60.253 98.984,52.379 100.3,52.379 
		103.438,58.583 103.457,58.583 103.457,52.379 104.287,52.379 104.287,60.253 103.457,60.253 99.834,53.097 99.814,53.097 	"/>
	<path style="clip-path:url(#SVGID_2_);fill:#1E3D71;" d="M111.635,54.504c-0.262-0.881-0.628-1.609-1.639-1.609
		c-0.719,0-1.388,0.576-1.388,1.347c0,1.963,3.838,1.193,3.838,3.946c0,1.377-1.023,2.226-2.349,2.226
		c-1.408,0-2.409-0.859-2.683-2.226l0.8-0.192c0.192,0.931,0.901,1.74,1.893,1.74c0.809,0,1.507-0.617,1.507-1.457
		c0-2.186-3.836-1.275-3.836-3.917c0-1.295,1.013-2.146,2.267-2.146c1.246,0,2.045,0.922,2.339,2.055L111.635,54.504z"/>
	<path style="clip-path:url(#SVGID_2_);fill:#1E3D71;" d="M124.985,54.696c-0.223-0.922-0.638-1.802-1.791-1.802
		c-1.094,0-2.025,1.032-2.025,3.421c0,2.39,0.931,3.422,2.025,3.422c1.457,0,1.841-1.357,1.76-2.551h-1.598v-0.709h2.429v3.775
		h-0.709v-0.768c-0.425,0.586-1.104,0.93-1.882,0.93c-1.64,0-2.855-1.507-2.855-4.099c0-2.591,1.215-4.098,2.855-4.098
		c1.447,0,2.327,0.992,2.591,2.287L124.985,54.696z"/>
	<path style="clip-path:url(#SVGID_2_);fill:#1E3D71;" d="M130.855,52.379c2.45,0,2.864,1.296,2.864,2.206
		c0,0.941-0.597,1.7-1.488,1.994l1.509,3.675h-0.921l-1.427-3.544h-1.569v3.544h-0.83v-7.875H130.855z M129.823,56.002h1.112
		c1.631,0,1.956-0.719,1.956-1.448c0-1.083-0.679-1.467-1.803-1.467h-1.265V56.002z"/>
	<path style="clip-path:url(#SVGID_2_);fill:#1E3D71;" d="M142.322,56.316c0,2.591-1.214,4.1-2.854,4.1
		c-1.639,0-2.854-1.509-2.854-4.1c0-2.591,1.215-4.1,2.854-4.1C141.108,52.216,142.322,53.725,142.322,56.316 M137.444,56.316
		c0,2.389,0.931,3.421,2.024,3.421c1.093,0,2.024-1.032,2.024-3.421s-0.931-3.422-2.024-3.422
		C138.375,52.894,137.444,53.927,137.444,56.316"/>
	<path style="clip-path:url(#SVGID_2_);fill:#1E3D71;" d="M150.389,57.783c0,2.115-1.386,2.632-2.5,2.632
		c-1.114,0-2.5-0.517-2.5-2.632v-5.405h0.83v4.828c0,1.225,0.091,2.42,1.67,2.42c1.578,0,1.67-1.195,1.67-2.42v-4.828h0.83V57.783z"
		/>
	<path style="clip-path:url(#SVGID_2_);fill:#1E3D71;" d="M155.794,52.379c1.963,0,2.581,1.245,2.581,2.156
		c0,0.961-0.567,2.175-2.713,2.175h-1.204v3.544h-0.83v-7.875H155.794z M154.458,56.002h0.688c1.083,0,2.399-0.041,2.399-1.458
		c0-1.497-1.417-1.457-2.51-1.457h-0.577V56.002z"/>
	<path style="clip-path:url(#SVGID_2_);fill:#1E3D71;" d="M49.46,3.462h-3.8V0.001h3.8V3.462z M49.46,19.8h-3.8V5.55h3.8V19.8z"/>
	<path style="clip-path:url(#SVGID_2_);fill:#1E3D71;" d="M55.468,7.025c1.207-0.992,2.695-1.781,4.288-1.781
		c1.566,0,3.774,0.941,3.774,4.454v10.103h-3.8v-8.577c0-1.145,0.077-2.951-1.567-2.951c-1.103,0-1.976,0.789-2.695,1.551v9.977
		h-3.8V5.549h3.8V7.025z"/>
	<polygon style="clip-path:url(#SVGID_2_);fill:#1E3D71;" points="72.336,19.8 68.689,19.8 62.604,0 66.738,0 70.487,14.711 
		70.539,14.711 74.287,0 78.421,0 	"/>
	<path style="clip-path:url(#SVGID_2_);fill:#1E3D71;" d="M80.988,13.566c-0.128,1.73,0.924,3.767,2.875,3.767
		c1.36,0,2.107-1.096,2.389-2.291l3.517,0.635c-0.823,2.825-3.569,4.429-6.29,4.429c-4.186,0-6.317-3.665-6.317-7.431
		c0-3.793,2.104-7.431,6.317-7.431c3.621,0,6.393,1.704,6.29,8.322H80.988z M86.045,11.198c0-1.602-0.641-3.18-2.464-3.18
		c-1.72,0-2.413,1.653-2.465,3.18H86.045z"/>
	<path style="clip-path:url(#SVGID_2_);fill:#1E3D71;" d="M94.877,7.025c1.207-0.992,2.697-1.781,4.287-1.781
		c1.568,0,3.777,0.941,3.777,4.454v10.103h-3.801v-8.577c0-1.145,0.078-2.951-1.566-2.951c-1.104,0-1.978,0.789-2.697,1.551v9.977
		h-3.798V5.549h3.798V7.025z"/>
	<path style="clip-path:url(#SVGID_2_);fill:#1E3D71;" d="M109.846,5.55h2.952v3.13h-2.952v7.252c0,0.687,0.203,1.401,1.436,1.401
		c0.643,0,1.055-0.255,1.516-0.537v2.877c-0.797,0.229-1.618,0.433-2.439,0.433c-2.362,0-4.315-1.323-4.315-4.429V8.68h-1.771V5.55
		h1.771V1.987h3.802V5.55z"/>
	<path style="clip-path:url(#SVGID_2_);fill:#1E3D71;" d="M118.525,3.462h-3.802V0.001h3.802V3.462z M118.525,19.8h-3.802V5.55
		h3.802V19.8z"/>
	<polygon style="clip-path:url(#SVGID_2_);fill:#1E3D71;" points="128.381,19.8 124.376,19.8 119.91,5.55 123.889,5.55 
		126.407,15.754 126.457,15.754 128.922,5.55 132.721,5.55 	"/>
	<polygon style="clip-path:url(#SVGID_2_);fill:#1E3D71;" points="56.238,29.325 56.238,21.589 60.243,21.589 60.243,41.387 
		56.238,41.387 56.238,32.684 49.64,32.684 49.64,41.387 45.634,41.387 45.634,21.589 49.64,21.589 49.64,29.325 	"/>
	<path style="clip-path:url(#SVGID_2_);fill:#1E3D71;" d="M65.43,35.152c-0.13,1.73,0.924,3.764,2.875,3.764
		c1.36,0,2.107-1.092,2.389-2.288l3.515,0.635c-0.821,2.825-3.567,4.428-6.288,4.428c-4.186,0-6.319-3.665-6.319-7.43
		c0-3.792,2.106-7.431,6.319-7.431c3.62,0,6.392,1.705,6.288,8.322H65.43z M70.487,32.785c0-1.604-0.641-3.18-2.464-3.18
		c-1.721,0-2.414,1.653-2.465,3.18H70.487z"/>
	<path style="clip-path:url(#SVGID_2_);fill:#1E3D71;" d="M83.787,40.088c-1.413,0.994-2.261,1.604-4.084,1.604
		c-2.491,0-4.518-1.679-4.518-4.224c0-4.021,5.34-4.835,8.395-5.166c0.256-1.984-0.41-2.698-1.822-2.698
		c-1.207,0-2.079,0.536-2.285,1.783l-3.647-0.562c0.848-3.028,2.901-3.995,5.906-3.995c3.876,0,5.65,1.833,5.65,4.505v7.075
		c0,1.017,0.051,2.035,0.512,2.977h-3.696L83.787,40.088z M83.58,34.871c-1.565,0.281-4.672,0.435-4.672,2.52
		c0,0.84,0.41,1.526,1.309,1.526c1.566,0,2.644-0.914,3.363-1.857V34.871z"/>
	<rect x="89.793" y="21.589" style="clip-path:url(#SVGID_2_);fill:#1E3D71;" width="3.8" height="19.798"/>
	<path style="clip-path:url(#SVGID_2_);fill:#1E3D71;" d="M100.551,27.136h2.954v3.13h-2.954v7.253c0,0.687,0.206,1.399,1.439,1.399
		c0.641,0,1.052-0.254,1.515-0.534v2.875c-0.797,0.231-1.619,0.433-2.441,0.433c-2.361,0-4.313-1.324-4.313-4.429v-6.997h-1.773
		v-3.13h1.773v-3.564h3.8V27.136z"/>
	<path style="clip-path:url(#SVGID_2_);fill:#1E3D71;" d="M109.666,28.611c1.206-0.992,2.695-1.781,4.287-1.781
		c1.568,0,3.777,0.942,3.777,4.454v10.103h-3.802v-8.575c0-1.147,0.078-2.954-1.567-2.954c-1.103,0-1.976,0.79-2.695,1.552v9.977
		h-3.8V21.588h3.8V28.611z"/>
	<path style="clip-path:url(#SVGID_2_);fill:#1E3D71;" d="M41.383,36.684c0,2.596-2.107,4.704-4.701,4.704H4.703
		C2.107,41.388,0,39.28,0,36.684V4.702c0-2.594,2.107-4.701,4.703-4.701h31.979c2.594,0,4.701,2.107,4.701,4.701V36.684z"/>
	<polygon style="clip-path:url(#SVGID_2_);fill:#FFC114;" points="28.178,35.788 25.973,35.788 25.973,30.639 20.824,30.639 
		20.824,28.433 28.178,28.433 	"/>
	<polygon style="clip-path:url(#SVGID_2_);fill:#BDD631;" points="35.791,28.175 28.438,28.175 28.438,25.967 33.588,25.967 
		33.588,20.821 35.791,20.821 	"/>
	<polygon style="clip-path:url(#SVGID_2_);fill:#17BEF0;" points="30.642,20.57 28.437,20.57 28.437,13.216 35.79,13.216 
		35.79,15.419 30.642,15.419 	"/>
	<polygon style="clip-path:url(#SVGID_2_);fill:#EB1B52;" points="28.178,12.955 20.824,12.955 20.824,10.749 25.973,10.749 
		25.973,5.6 28.178,5.6 	"/>
	<polygon style="clip-path:url(#SVGID_2_);fill:#EB1B52;" points="20.562,35.788 13.211,35.788 13.211,28.433 15.415,28.433 
		15.415,33.581 20.562,33.581 	"/>
	<polygon style="clip-path:url(#SVGID_2_);fill:#17BEF0;" points="12.95,28.175 5.595,28.175 5.595,20.821 7.802,20.821 
		7.802,25.968 12.95,25.968 	"/>
	<polygon style="clip-path:url(#SVGID_2_);fill:#BDD631;" points="12.95,20.563 10.744,20.563 10.744,15.42 5.595,15.42 
		5.595,13.213 12.95,13.213 	"/>
	<polygon style="clip-path:url(#SVGID_2_);fill:#FFC114;" points="15.416,12.951 13.211,12.951 13.211,5.598 20.563,5.598 
		20.563,7.804 15.416,7.804 	"/>
</g>
</svg>
