<?xml version="1.0" encoding="iso-8859-1"?>
<!-- Generator: Adobe Illustrator 17.0.0, SVG Export Plug-In . SVG Version: 6.00 Build 0)  -->
<!DOCTYPE svg PUBLIC "-//W3C//DTD SVG 1.1//EN" "http://www.w3.org/Graphics/SVG/1.1/DTD/svg11.dtd">
<svg version="1.1" id="Layer_1" xmlns="http://www.w3.org/2000/svg" xmlns:xlink="http://www.w3.org/1999/xlink" x="0px" y="0px"
	 width="148.513px" height="65.781px" viewBox="0 0 148.513 65.781" style="enable-background:new 0 0 148.513 65.781;"
	 xml:space="preserve">
<g>
	<defs>
		<rect id="SVGID_1_" y="0" width="148.513" height="65.781"/>
	</defs>
	<clipPath id="SVGID_2_">
		<use xlink:href="#SVGID_1_"  style="overflow:visible;"/>
	</clipPath>
	<path style="clip-path:url(#SVGID_2_);fill:#001343;" d="M143.461,32.894c0,17.76-30.981,32.155-69.205,32.155
		c-38.22,0-69.208-14.395-69.208-32.155c0-17.756,30.988-32.15,69.208-32.15C112.48,0.744,143.461,15.138,143.461,32.894"/>
</g>
<g>
	<defs>
		<path id="SVGID_3_" d="M11.273,32.903c0,17.01,28.197,30.798,62.983,30.798c34.783,0,62.983-13.788,62.983-30.798
			c0-17.007-28.2-30.797-62.983-30.797C39.47,2.106,11.273,15.896,11.273,32.903"/>
	</defs>
	<clipPath id="SVGID_4_">
		<use xlink:href="#SVGID_3_"  style="overflow:visible;"/>
	</clipPath>
	
		<radialGradient id="SVGID_5_" cx="0" cy="65.7811" r="1" gradientTransform="matrix(64.9868 0 0 -31.7727 73.2611 2121.5486)" gradientUnits="userSpaceOnUse">
		<stop  offset="0" style="stop-color:#00ADEE"/>
		<stop  offset="0.4831" style="stop-color:#00ADEE"/>
		<stop  offset="0.8258" style="stop-color:#005AA9"/>
		<stop  offset="1" style="stop-color:#00093B"/>
	</radialGradient>
	<rect x="11.273" y="2.106" style="clip-path:url(#SVGID_4_);fill:url(#SVGID_5_);" width="125.966" height="61.595"/>
</g>
<g>
	<defs>
		<rect id="SVGID_6_" y="0" width="148.513" height="65.781"/>
	</defs>
	<clipPath id="SVGID_7_">
		<use xlink:href="#SVGID_6_"  style="overflow:visible;"/>
	</clipPath>
	<path style="clip-path:url(#SVGID_7_);fill:#00000C;" d="M128.932,20.068c-0.873-1.582-2.943-2.589-5.618-2.589
		c-1.117,0-1.921,0.138-2.927,0.434c-0.382-0.249-0.805-0.415-1.279-0.415h-0.62c-0.174,0-0.358,0.02-0.531,0.062l-0.462,0.104
		c-0.245-0.832-0.831-1.598-1.792-2.092c-0.573-1.217-1.946-2.185-4.261-2.185c-2.891,0-5.152,1.772-5.152,4.03
		c0,0.263,0.033,0.536,0.098,0.81c-0.884-0.463-1.976-0.748-3.226-0.748c-1.902,0-3.416,0.285-5.222,0.981
		c-1.132-0.785-2.336-0.981-3.725-0.981c-1.319,0-2.408,0.154-3.5,0.464c-0.393-0.263-0.826-0.445-1.312-0.445h-0.769
		c-0.198,0-0.395,0.023-0.59,0.072l-4.2,1.058c-0.218,0.057-0.419,0.147-0.609,0.255c-1.089-0.743-2.864-1.288-5.737-1.288
		c-1.466,0-2.636,0.091-4.089,0.346c-0.024-0.538-0.223-1.058-0.59-1.475c-0.303-0.341-0.69-0.577-1.111-0.702
		c-0.101-0.329-0.263-0.639-0.498-0.902c-0.58-0.659-1.481-0.948-2.34-0.75l-4.29,0.99c-0.208-0.073-0.443-0.121-0.678-0.171
		c0.414-0.688,0.484-1.544,0.122-2.285c-0.301-0.624-0.846-1.078-1.503-1.267c-0.032-0.11-0.05-0.227-0.105-0.332
		c-0.401-0.836-1.243-1.362-2.169-1.362h-2.929c-0.74,0-1.438,0.336-1.892,0.911c0,0-2.339,2.963-4.658,5.896
		c-0.415-1.88-0.739-3.32-0.739-3.32c-0.187-0.87-0.84-1.531-1.663-1.779c-0.306-1.006-1.229-1.708-2.296-1.708h-6.167
		c-0.73,0-1.417,0.325-1.875,0.889c-0.46,0.567-0.631,1.308-0.486,2.018l1.876,8.8h-4.55c-0.263,0-0.523,0.046-0.764,0.127
		c-0.235-0.074-0.48-0.127-0.725-0.127h-1.932c-0.354,0-0.679,0.102-0.987,0.236c-0.305-0.134-0.629-0.236-0.977-0.236h-1.947
		c-0.143,0-0.278,0.016-0.418,0.039c-0.155-0.03-0.304-0.057-0.466-0.057h-6.187c-1.025,0-1.936,0.647-2.273,1.613l-0.157,0.455
		c-0.093,0.258-0.136,0.525-0.136,0.79c0,0.494,0.154,0.978,0.444,1.396c0.218,0.302,0.5,0.542,0.822,0.716
		c-0.309,0.875-0.65,1.841-0.65,1.841c-0.092,0.265-0.139,0.536-0.139,0.806c0,0.49,0.148,0.977,0.439,1.39
		c0.309,0.442,0.764,0.747,1.265,0.903c0.075,0.247,0.183,0.489,0.342,0.706c0.453,0.639,1.183,1.017,1.968,1.017h1.92
		c0.559,0,1.085-0.2,1.501-0.536c0.222,0.174,0.462,0.303,0.731,0.393c-0.236,0.556-0.371,1.147-0.371,1.764
		c0,1.643,0.926,2.854,2.271,3.823c0.838,1.278,2.37,2.21,4.073,3.002c-0.025,0-0.046,0.001-0.077,0.001
		c-0.748,0-1.871-0.096-2.746-0.538c-0.152-0.131-0.321-0.245-0.504-0.329c-0.214-0.172-0.405-0.369-0.536-0.617
		c-0.425-0.77-1.234-1.253-2.114-1.253H25.85c-1.017,0-1.924,0.641-2.267,1.604l-0.973,2.714c-0.442,1.249,0.208,2.624,1.452,3.073
		c0.041,0.013,0.088,0.026,0.127,0.042c0.219,0.701,0.743,1.3,1.484,1.564c1.936,0.7,5.265,1.184,8.103,1.184
		c2.922,0,5.883-0.661,8.148-1.876c0.458,0.498,1.097,0.807,1.78,0.807h4.594c0.869,0,1.633-0.485,2.056-1.214
		c0.042,0.063,0.056,0.138,0.103,0.199c0.448,0.635,1.187,1.015,1.965,1.015h4.695c0.92,0,1.755-0.531,2.156-1.347
		c1.302,0.98,3.118,1.553,5.245,1.553c0.905,0,1.779-0.089,2.618-0.246c0.075,0.292,0.183,0.58,0.361,0.829
		c0.313,0.446,0.775,0.757,1.283,0.907c0.075,0.246,0.174,0.485,0.325,0.698c0.45,0.64,1.185,1.017,1.965,1.017h4.546
		c1.028,0,1.936-0.642,2.274-1.606c0,0,0.334-0.951,0.653-1.853c0.714,0.152,1.492,0.254,2.394,0.254
		c0.494,0,0.981-0.044,1.461-0.104c0.075,0.239,0.172,0.474,0.324,0.687c0.314,0.446,0.775,0.757,1.279,0.907
		c0.077,0.246,0.174,0.485,0.325,0.698c0.455,0.64,1.186,1.017,1.969,1.017h4.539c1.023,0,1.936-0.641,2.273-1.605
		c0,0,0.338-0.95,0.651-1.854c0.717,0.152,1.498,0.254,2.397,0.254c2.629,0,4.979-0.916,6.743-2.431
		c1.384,1.425,3.753,2.431,7.246,2.431c2.285,0,4.753-0.42,6.444-1.093c0.651-0.261,1.156-0.794,1.387-1.457l0.617-1.814
		c0.082-0.255,0.129-0.514,0.129-0.777c0-0.367-0.112-0.721-0.281-1.057l0.082-0.02c0.928-0.235,1.527-0.61,1.685-1.553l0.288-1.727
		c0-1.545-0.758-3.097-2.356-4.144c-0.157-0.247-0.336-0.481-0.539-0.704c0.732-0.137,1.352-0.597,1.691-1.261
		c0.054,0.1,0.084,0.209,0.151,0.305c0.454,0.639,1.186,1.016,1.968,1.016h4.507c1.026,0,1.933-0.646,2.275-1.61l2.503-7.11
		c0.025-0.066,0.046-0.142,0.061-0.207l0.03-0.112l0.202-1.27C130.988,22.018,130.218,20.84,128.932,20.068"/>
	<path style="clip-path:url(#SVGID_7_);fill:#FFFFFF;" d="M25.85,41.127h0.688c0.969,1.773,3.05,2.735,5.9,2.735
		c3.161,0,5.394-1.053,5.394-2.577c0-0.754-0.927-1.502-2.852-2.328l-2.23-0.926c-2.932-1.259-4.172-2.259-4.172-3.403
		c0-2.407,4.087-4.308,9.173-4.308c2.353,0,3.359,0.089,5.747,0.611l-0.885,2.472h-0.736c-0.501-1.255-2.307-2.102-4.543-2.102
		c-2.664,0-4.669,0.887-4.669,2.068c0,0.803,0.543,1.172,3.245,2.249c5.044,2.002,5.967,2.676,5.967,4.314
		c0,2.664-4.503,4.955-9.713,4.955c-2.538,0-5.626-0.446-7.284-1.044L25.85,41.127z"/>
	<path style="clip-path:url(#SVGID_7_);fill:#FFFFFF;" d="M55.517,43.815h-4.702l2.199-6.247l0.307-0.845
		c0.073-0.256,0.112-0.424,0.112-0.541c0-0.463-0.537-0.734-1.421-0.734c-1.545,0-2.549,0.485-2.858,1.351l-2.467,7.016h-4.586
		l4.388-12.5l4.399-0.906h0.537l-1.612,4.543c-0.042,0.073,0.966-0.198,1.503-0.432c1.003-0.396,2.463-0.655,3.736-0.655
		c1.853,0,3.157,0.816,3.157,1.896c0,0.274-0.114,0.754-0.655,2.274L55.517,43.815z"/>
	<path style="clip-path:url(#SVGID_7_);fill:#FFFFFF;" d="M66.881,38.937l-0.809,2.081c-0.615,1.542-1.424,2.233-2.66,2.233
		c-0.884,0-1.349-0.303-1.349-0.863c0-0.6,0.155-1.41,0.506-2.425c0.111-0.404,0.348-1.005,0.615-1.776
		c0.272-0.642,0.459-1.095,0.614-1.388c0.354-0.637,0.54-0.964,0.581-1.001c0.269-0.716,0.997-1.101,2.119-1.101
		c0.727,0,1.196,0.305,1.196,0.793v0.208l-0.082,0.963C67.579,37.073,67.309,37.838,66.881,38.937 M71.934,37.453
		c0-2.154-1.932-3.489-5.053-3.489c-4.897,0-9.015,2.989-9.015,6.555c0,2.118,2.005,3.51,5.051,3.51
		C67.807,44.029,71.934,41.041,71.934,37.453"/>
	<path style="clip-path:url(#SVGID_7_);fill:#FFFFFF;" d="M80.603,35.331c0.844,0,1.387,0.429,1.387,1.136
		c0,0.312-0.077,0.699-0.191,1.204c-0.501,2.039-0.804,2.863-1.551,3.791c-0.612,0.824-1.3,1.194-2.187,1.194
		c-0.349,0-0.735-0.078-1.194-0.248c-0.465-0.175-0.926-0.502-0.926-0.675v-0.019l1.964-5.47
		C78.713,35.661,79.677,35.331,80.603,35.331 M75.551,42.832c0.505,0.773,1.849,1.196,3.78,1.196c4.234,0,7.595-3.088,7.595-7.059
		c0-2.083-1.276-3.006-4.128-3.006c-2.195,0-3.58,0.433-4.702,1.428l-0.115-0.345l0.383-1.118l-4.547,1.001L69.469,47.23h4.544
		L75.551,42.832z"/>
	<path style="clip-path:url(#SVGID_7_);fill:#FFFFFF;" d="M95.827,35.331c0.841,0,1.385,0.429,1.385,1.136
		c0,0.312-0.079,0.699-0.198,1.204c-0.498,2.039-0.805,2.863-1.54,3.791c-0.613,0.824-1.315,1.194-2.196,1.194
		c-0.346,0-0.728-0.078-1.196-0.248c-0.461-0.175-0.924-0.502-0.924-0.675v-0.019l1.969-5.47
		C93.934,35.661,94.897,35.331,95.827,35.331 M90.774,42.832c0.503,0.773,1.849,1.196,3.778,1.196c4.238,0,7.592-3.088,7.592-7.059
		c0-2.083-1.269-3.006-4.132-3.006c-2.185,0-3.573,0.433-4.69,1.428l-0.121-0.345l0.384-1.118l-4.547,1.001L84.692,47.23h4.542
		L90.774,42.832z"/>
	<path style="clip-path:url(#SVGID_7_);fill:#FFFFFF;" d="M107.498,39.056c1.046-3.317,1.932-4.376,3.702-4.376
		c0.924,0,1.392,0.321,1.392,0.967c0,0.597-0.081,0.922-0.468,2.248L107.498,39.056z M114.049,41.308
		c-1.385,1.236-2.964,1.87-4.666,1.87c-1.65,0-2.542-0.542-2.542-1.543c0-0.194,0.044-0.388,0.193-1.061
		c0-0.093,0.036-0.209,0.089-0.366l9.202-2.329c0.118-0.343,0.155-0.561,0.155-0.941c0-1.831-2.044-3.049-5.093-3.049
		c-4.928,0-9.171,3.049-9.171,6.592c0,2.123,2.546,3.547,6.328,3.547c1.962,0,4.162-0.367,5.544-0.928l0.617-1.807L114.049,41.308z"
		/>
	<polygon style="clip-path:url(#SVGID_7_);fill:#FFFFFF;" points="24.39,24.232 22.697,28.991 20.782,28.991 22.472,24.232 
		20.308,24.232 20.465,23.786 26.652,23.786 26.487,24.232 	"/>
	<polygon style="clip-path:url(#SVGID_7_);fill:#FFFFFF;" points="25.706,28.991 27.536,23.8 29.483,23.8 28.966,25.255 
		30.927,25.255 31.446,23.8 33.378,23.8 31.548,28.991 29.615,28.991 30.767,25.697 28.806,25.697 27.654,28.991 	"/>
	<polygon style="clip-path:url(#SVGID_7_);fill:#FFFFFF;" points="39.091,25.698 36.14,25.698 35.128,28.544 38.086,28.544 
		37.925,28.992 33.04,28.992 34.868,23.8 39.757,23.8 39.598,24.249 36.642,24.249 36.293,25.255 39.249,25.255 	"/>
	<polygon style="clip-path:url(#SVGID_7_);fill:#FFFFFF;" points="46.07,12.088 48.552,23.191 57.318,12.088 60.247,12.088 
		46.452,29.529 43.618,29.529 39.904,12.088 	"/>
	<path style="clip-path:url(#SVGID_7_);fill:#FFFFFF;" d="M58.274,29.736h-4.625l3.157-8.901l4.323-1.007h0.649L58.274,29.736z
		 M63.163,17.233c-0.226,0.845-1.495,1.535-2.964,1.535c-1.496,0-2.351-0.479-2.351-1.35c0-1.03,1.353-1.845,2.967-1.845
		c1.505,0,2.391,0.526,2.391,1.396C63.206,17.05,63.206,17.127,63.163,17.233 M113.792,17.233c-0.234,0.845-1.502,1.535-2.963,1.535
		c-1.503,0-2.357-0.479-2.357-1.35c0-1.03,1.354-1.845,2.97-1.845c1.506,0,2.392,0.526,2.392,1.396
		C113.834,17.05,113.834,17.127,113.792,17.233 M113.792,17.233c-0.234,0.845-1.502,1.535-2.963,1.535
		c-1.503,0-2.357-0.479-2.357-1.35c0-1.03,1.354-1.845,2.97-1.845c1.506,0,2.392,0.526,2.392,1.396
		C113.834,17.05,113.834,17.127,113.792,17.233"/>
	<path style="clip-path:url(#SVGID_7_);fill:#FFFFFF;" d="M70.333,21.028h-2.537l-2.282,6.413c-0.152,0.501-0.228,0.673-0.228,0.788
		c0,0.389,0.462,0.656,1.117,0.656c0.271,0,0.496-0.042,1.273-0.176l-0.349,1.007c-1.117,0.188-1.579,0.231-2.502,0.231
		c-2.506,0-3.857-0.696-3.857-2.005c0-0.368,0.078-0.732,0.193-1.102l0.349-0.977l2.89-8.248l5.011-1.156l-1.279,3.525h2.548
		L70.333,21.028z"/>
	<path style="clip-path:url(#SVGID_7_);fill:#FFFFFF;" d="M73.878,28.727c-0.959,0-1.467-0.398-1.467-1.188
		c0-1.676,1.392-3.008,3.123-3.008c0.578,0,0.883,0.04,1.62,0.232l-1.23,3.466C74.921,28.635,74.534,28.727,73.878,28.727
		 M80.044,29.562c0-0.25,0.036-0.483,0.111-0.696l2.088-5.953c0.108-0.327,0.23-0.772,0.23-0.981c0-1.232-1.813-1.93-4.974-1.93
		c-2.005,0-3.31,0.168-5.967,0.789l-0.624,1.754h0.541l0.424-0.21l0.887-0.486c1.429-0.768,2.583-1.116,3.738-1.116
		c0.965,0,1.657,0.366,1.657,0.888c0,0.172-0.036,0.482-0.12,0.675l-0.572,1.62c-0.232-0.04-0.387-0.064-0.46-0.077
		c-0.043,0-0.193-0.056-0.54-0.156c-0.539-0.157-1.156-0.234-1.855-0.234c-3.657,0-6.703,1.968-6.703,4.358
		c0,1.311,1.738,2.329,3.896,2.329c0.924,0,2.117-0.246,2.77-0.594l0.814-0.424l0.423-0.177l0.075,1.006h4.161V29.562z"/>
	<path style="clip-path:url(#SVGID_7_);fill:#FFFFFF;" d="M85.978,29.736h-4.626l3.084-8.771l4.199-1.061h0.769l-0.463,1.332
		c0.235-0.113,0.382-0.192,0.505-0.234c1.694-0.832,2.928-1.115,4.77-1.115c1.55,0,2.24,0.268,3.05,1.194
		c0.04,0.042,0.079,0.116,0.191,0.191c2.238-1.037,3.661-1.385,5.705-1.385c1.654,0,3.007,0.672,3.007,1.523
		c0,0.095-0.081,0.288-0.162,0.574l-0.229,0.893l-2.426,6.859H98.69l2.428-6.823c0.075-0.21,0.113-0.402,0.113-0.578
		c0-0.466-0.572-0.807-1.268-0.807c-0.732,0-1.618,0.228-2.271,0.574c-0.426,0.233-0.582,0.385-0.659,0.633l-2.464,7.001h-4.55
		l2.43-6.901c0.076-0.173,0.119-0.324,0.119-0.423c0-0.563-0.582-0.884-1.622-0.884c-0.499,0-1.002,0.093-1.35,0.265l-0.655,0.329
		l-0.342,0.231L85.978,29.736z"/>
	<polygon style="clip-path:url(#SVGID_7_);fill:#FFFFFF;" points="109.369,29.736 104.737,29.736 107.899,20.835 112.21,19.828 
		112.868,19.828 	"/>
	<path style="clip-path:url(#SVGID_7_);fill:#FFFFFF;" d="M124.314,29.736h-4.51l2.429-6.901c0.119-0.324,0.119-0.388,0.119-0.482
		c0-0.54-0.617-0.924-1.544-0.924c-0.885,0-2.195,0.48-2.657,0.983l-2.584,7.324h-4.511l3.086-8.83l4.346-1.002h0.62l-0.427,1.098
		c0.66-0.229,1.205-0.401,1.548-0.519c1.382-0.46,2.004-0.596,3.086-0.596c2.116,0,3.656,0.813,3.656,1.942
		c0,0.214-0.079,0.485-0.152,0.801L124.314,29.736z"/>
	<path style="clip-path:url(#SVGID_7_);fill:#00000C;" d="M55.834,54.593l-0.108-0.009c-0.052,0-0.199-0.142-0.419-0.385
		c-0.09-0.104-0.377-0.209-0.793-0.299c-0.205-0.038-0.424-0.06-0.648-0.06c-0.736,0-1.364,0.297-1.4,0.663
		c-0.032,0.377,0.314,0.607,1.756,1.131c0.901,0.342,1.335,0.81,1.285,1.355c-0.102,0.994-1.621,1.759-3.505,1.759
		c-0.748,0-1.424-0.082-2.039-0.258c-0.24-0.073-0.295-0.108-0.287-0.202c0.01-0.101,0.064-0.235,0.165-0.403
		c0.071-0.129,0.134-0.293,0.195-0.514l0.092,0.016c0.052,0,0.104,0.079,0.139,0.194c0.062,0.199,0.54,0.517,1.009,0.671
		c0.256,0.086,0.57,0.13,0.921,0.13c0.968,0,1.765-0.385,1.812-0.882c0.037-0.349-0.086-0.478-0.807-0.828l-0.843-0.406
		c-1.184-0.574-1.367-0.759-1.314-1.308c0.034-0.299,0.276-0.62,0.665-0.863c0.551-0.359,1.392-0.605,2.069-0.605
		c1.085,0,1.791,0.091,2.236,0.289L55.834,54.593z"/>
	<polygon style="clip-path:url(#SVGID_7_);fill:#00000C;" points="56.353,58.639 58.137,53.58 59.708,53.575 57.921,58.639 	"/>
	<polygon style="clip-path:url(#SVGID_7_);fill:#00000C;" points="59.9,58.639 61.689,53.557 63.466,53.557 65.405,56.653 
		66.498,53.557 67.199,53.557 65.402,58.639 64.685,58.639 62.142,54.495 60.669,58.639 	"/>
	<path style="clip-path:url(#SVGID_7_);fill:#00000C;" d="M72.036,58.097l0.133,0.284c-0.75,0.258-1.414,0.366-2.232,0.366
		c-1.659,0-2.677-0.834-2.55-2.083c0.179-1.804,2.251-3.204,4.747-3.204c0.601,0,0.86,0.036,1.452,0.219l-0.195,0.658l-0.097,0.022
		c-0.317-0.379-0.775-0.549-1.427-0.549c-0.764,0-1.378,0.274-1.802,0.823c-0.536,0.671-0.938,1.632-1.018,2.41
		c-0.09,0.883,0.412,1.334,1.451,1.334C70.969,58.377,71.29,58.319,72.036,58.097"/>
	<polygon style="clip-path:url(#SVGID_7_);fill:#00000C;" points="73.146,58.639 74.917,53.6 79.312,53.6 79.158,54.065 
		76.448,54.065 76.106,55.04 78.81,55.04 78.638,55.532 75.93,55.532 74.999,58.187 77.7,58.187 77.544,58.639 	"/>
	<path style="clip-path:url(#SVGID_7_);fill:#00000C;" d="M84.362,58.639h-1.424l1.438-4.067L82.773,55.2l-0.214-0.235
		c0.434-0.224,0.556-0.273,1.126-0.547c0.963-0.451,1.243-0.593,1.484-0.778c0.177-0.124,0.243-0.153,0.365-0.153h0.652
		L84.362,58.639z"/>
	<path style="clip-path:url(#SVGID_7_);fill:#00000C;" d="M89.115,56.25c-0.423,0-0.668-0.177-0.643-0.452
		c0.109-1.121,0.703-1.941,1.396-1.941c0.407,0,0.624,0.258,0.583,0.678c-0.025,0.244-0.088,0.445-0.453,1.372
		C89.717,56.153,89.46,56.25,89.115,56.25 M86.483,58.334c-0.005,0.036,0.006,0.055,0.036,0.075
		c0.089,0.066,0.212,0.116,0.357,0.152c0.378,0.087,0.821,0.159,1.057,0.159c1.896,0,3.662-1.531,3.839-3.349
		c0.112-1.12-0.58-1.849-1.764-1.849c-1.42,0-2.843,0.97-2.946,2.004c-0.072,0.711,0.478,1.203,1.349,1.203
		c0.386,0,0.627-0.069,1.432-0.379l0.043,0.052c-0.581,1.43-1.136,1.976-1.99,1.976c-0.448,0-0.678-0.135-1-0.559
		c-0.017-0.026-0.034-0.067-0.07-0.113l-0.134,0.015C86.561,58.067,86.489,58.274,86.483,58.334"/>
	<path style="clip-path:url(#SVGID_7_);fill:#00000C;" d="M91.558,58.639c0.26-0.702,0.433-0.964,0.94-1.444
		c0.553-0.527,1.223-1.026,2.105-1.573c0.424-0.259,0.7-0.453,0.824-0.567c0.247-0.225,0.401-0.355,0.466-0.393
		c0.099-0.059,0.158-0.115,0.162-0.147c0,0,0.003-0.013-0.004-0.04c-0.721,0.06-1.104,0.081-1.564,0.081
		c-0.383,0-0.692-0.021-0.91-0.065c-0.233-0.045-0.398-0.066-0.526-0.066c-0.256,0-0.381,0.117-0.479,0.441l-0.418-0.061
		l0.886-1.318c0.804,0.111,1.291,0.136,2.117,0.136c0.324,0,0.616-0.005,0.844-0.025l1.013-0.089l0.317-0.022
		c-0.251,0.612-0.674,1.06-2.013,2.16c-0.835,0.683-1.207,1.088-1.567,1.735c-0.213,0.37-0.321,0.629-0.544,1.257H91.558z"/>
	<path style="clip-path:url(#SVGID_7_);fill:#00000C;" d="M96.35,58.639c0.26-0.702,0.441-0.964,0.941-1.444
		c0.556-0.527,1.222-1.026,2.11-1.573c0.417-0.259,0.691-0.453,0.821-0.567c0.242-0.225,0.398-0.355,0.466-0.393
		c0.1-0.059,0.157-0.115,0.162-0.147c0,0,0.004-0.013-0.005-0.04c-0.724,0.06-1.106,0.081-1.563,0.081
		c-0.386,0-0.692-0.021-0.91-0.065c-0.233-0.045-0.4-0.066-0.525-0.066c-0.257,0-0.389,0.117-0.485,0.441l-0.417-0.061l0.885-1.318
		c0.805,0.111,1.296,0.136,2.115,0.136c0.335,0,0.624-0.005,0.847-0.025l1.022-0.089l0.312-0.022
		c-0.252,0.612-0.669,1.06-2.015,2.16c-0.838,0.683-1.203,1.088-1.569,1.735c-0.206,0.37-0.317,0.629-0.544,1.257H96.35z"/>
	<path style="clip-path:url(#SVGID_7_);fill:#FFFFFF;" d="M55.246,54.001l-0.108-0.006c-0.051,0-0.2-0.137-0.419-0.385
		c-0.09-0.106-0.375-0.21-0.79-0.291c-0.208-0.045-0.427-0.063-0.652-0.063c-0.735,0-1.361,0.291-1.399,0.655
		c-0.036,0.38,0.318,0.61,1.746,1.135c0.909,0.338,1.344,0.805,1.294,1.354c-0.099,0.999-1.619,1.761-3.501,1.761
		c-0.751,0-1.428-0.087-2.033-0.259c-0.252-0.07-0.308-0.106-0.297-0.202c0.011-0.103,0.067-0.232,0.163-0.405
		c0.072-0.123,0.14-0.288,0.201-0.503l0.089,0.006c0.049,0,0.106,0.081,0.143,0.199c0.065,0.195,0.537,0.515,1.005,0.667
		c0.25,0.084,0.573,0.132,0.916,0.132c0.973,0,1.77-0.385,1.818-0.883c0.036-0.351-0.084-0.478-0.807-0.828l-0.838-0.408
		c-1.19-0.573-1.37-0.756-1.315-1.31c0.028-0.296,0.27-0.615,0.663-0.863c0.547-0.358,1.387-0.603,2.065-0.603
		c1.089,0,1.789,0.091,2.239,0.287L55.246,54.001z"/>
	<polygon style="clip-path:url(#SVGID_7_);fill:#FFFFFF;" points="55.77,58.049 57.545,52.992 59.119,52.985 57.334,58.049 	"/>
	<polygon style="clip-path:url(#SVGID_7_);fill:#FFFFFF;" points="59.312,58.049 61.104,52.977 62.882,52.977 64.821,56.065 
		65.913,52.977 66.613,52.977 64.814,58.049 64.096,58.049 61.556,53.905 60.082,58.049 	"/>
	<path style="clip-path:url(#SVGID_7_);fill:#FFFFFF;" d="M71.448,57.512l0.135,0.284c-0.756,0.253-1.412,0.365-2.234,0.365
		c-1.655,0-2.673-0.832-2.554-2.081c0.182-1.81,2.251-3.207,4.75-3.207c0.605,0,0.865,0.037,1.454,0.219l-0.198,0.66l-0.091,0.021
		c-0.317-0.381-0.776-0.549-1.431-0.549c-0.766,0-1.374,0.273-1.807,0.824c-0.526,0.668-0.934,1.629-1.017,2.408
		c-0.086,0.884,0.419,1.333,1.457,1.333C70.38,57.789,70.698,57.735,71.448,57.512"/>
	<polygon style="clip-path:url(#SVGID_7_);fill:#FFFFFF;" points="72.556,58.049 74.33,53.014 78.731,53.014 78.572,53.477 
		75.861,53.477 75.522,54.451 78.224,54.451 78.048,54.941 75.342,54.941 74.411,57.597 77.111,57.597 76.953,58.049 	"/>
	<path style="clip-path:url(#SVGID_7_);fill:#FFFFFF;" d="M83.779,58.049h-1.428l1.439-4.067l-1.597,0.63l-0.225-0.235
		c0.437-0.221,0.563-0.276,1.132-0.55c0.963-0.452,1.242-0.591,1.486-0.771c0.173-0.131,0.234-0.159,0.364-0.159h0.653
		L83.779,58.049z"/>
	<path style="clip-path:url(#SVGID_7_);fill:#FFFFFF;" d="M88.534,55.66c-0.429,0-0.677-0.174-0.652-0.449
		c0.115-1.125,0.704-1.946,1.401-1.946c0.402,0,0.624,0.263,0.577,0.683c-0.025,0.243-0.086,0.446-0.454,1.377
		C89.128,55.565,88.872,55.66,88.534,55.66 M85.894,57.747c0,0.036,0.008,0.06,0.036,0.078c0.092,0.059,0.214,0.111,0.357,0.15
		c0.379,0.089,0.816,0.153,1.064,0.153c1.893,0,3.653-1.525,3.835-3.344c0.113-1.126-0.587-1.849-1.765-1.849
		c-1.417,0-2.845,0.97-2.95,2.002c-0.067,0.711,0.48,1.207,1.352,1.207c0.383,0,0.624-0.071,1.436-0.381l0.036,0.055
		c-0.582,1.427-1.135,1.97-1.987,1.97c-0.446,0-0.679-0.132-0.995-0.561c-0.026-0.022-0.04-0.061-0.076-0.109l-0.133,0.013
		C85.978,57.475,85.902,57.683,85.894,57.747"/>
	<path style="clip-path:url(#SVGID_7_);fill:#FFFFFF;" d="M90.97,58.049c0.263-0.693,0.437-0.96,0.941-1.441
		c0.552-0.525,1.222-1.028,2.106-1.576c0.422-0.256,0.692-0.448,0.819-0.569c0.248-0.218,0.401-0.353,0.469-0.387
		c0.1-0.059,0.157-0.112,0.163-0.151c0,0,0-0.014-0.006-0.037c-0.717,0.061-1.109,0.083-1.564,0.083
		c-0.388,0-0.691-0.022-0.909-0.066c-0.226-0.045-0.398-0.069-0.526-0.069c-0.255,0-0.384,0.118-0.487,0.443l-0.41-0.056
		l0.884-1.326c0.806,0.11,1.296,0.143,2.115,0.143c0.33,0,0.624-0.008,0.844-0.033l1.02-0.088l0.316-0.022
		c-0.255,0.615-0.675,1.067-2.018,2.16c-0.833,0.685-1.203,1.094-1.568,1.735c-0.209,0.375-0.317,0.629-0.537,1.257H90.97z"/>
	<path style="clip-path:url(#SVGID_7_);fill:#FFFFFF;" d="M95.766,58.049c0.256-0.693,0.436-0.96,0.935-1.441
		c0.554-0.525,1.221-1.028,2.107-1.576c0.423-0.256,0.7-0.448,0.828-0.569c0.247-0.218,0.396-0.353,0.463-0.387
		c0.101-0.059,0.16-0.112,0.162-0.151c0,0,0.006-0.014-0.003-0.037c-0.722,0.061-1.11,0.083-1.565,0.083
		c-0.382,0-0.695-0.022-0.912-0.066c-0.227-0.045-0.396-0.069-0.526-0.069c-0.253,0-0.382,0.118-0.48,0.443l-0.418-0.056
		l0.884-1.326c0.815,0.11,1.301,0.143,2.119,0.143c0.332,0,0.617-0.008,0.847-0.033l1.019-0.088l0.312-0.022
		c-0.252,0.615-0.667,1.067-2.012,2.16c-0.836,0.685-1.207,1.094-1.571,1.735c-0.206,0.375-0.318,0.629-0.54,1.257H95.766z"/>
	<path style="clip-path:url(#SVGID_7_);fill:#F2BE1A;" d="M148.513,32.888c0,18.163-33.241,32.893-74.257,32.893
		C33.249,65.781,0,51.051,0,32.888C0,14.721,33.249,0,74.256,0C115.272,0,148.513,14.721,148.513,32.888 M74.256,2.105
		c-34.785,0-62.982,13.789-62.982,30.797c0,17.01,28.197,30.798,62.982,30.798c34.783,0,62.983-13.788,62.983-30.798
		C137.239,15.894,109.039,2.105,74.256,2.105"/>
	<path style="clip-path:url(#SVGID_7_);fill:#231F20;" d="M140.392,52.231c0-1.322,0.998-2.319,2.274-2.319
		c1.262,0,2.259,0.997,2.259,2.319c0,1.344-0.997,2.334-2.259,2.334C141.39,54.565,140.392,53.575,140.392,52.231 M142.666,55.03
		c1.522,0,2.821-1.182,2.821-2.799c0-1.602-1.299-2.783-2.821-2.783c-1.536,0-2.835,1.181-2.835,2.783
		C139.831,53.848,141.13,55.03,142.666,55.03 M142.076,52.453h0.561l0.849,1.395h0.546l-0.915-1.418
		c0.472-0.058,0.835-0.309,0.835-0.886c0-0.635-0.378-0.915-1.138-0.915h-1.225v3.219h0.487V52.453z M142.076,52.039v-0.997h0.664
		c0.339,0,0.702,0.074,0.702,0.473c0,0.495-0.37,0.524-0.782,0.524H142.076z"/>
</g>
</svg>
