<?xml version="1.0" encoding="iso-8859-1"?>
<!-- Generator: Adobe Illustrator 17.0.0, SVG Export Plug-In . SVG Version: 6.00 Build 0)  -->
<!DOCTYPE svg PUBLIC "-//W3C//DTD SVG 1.1//EN" "http://www.w3.org/Graphics/SVG/1.1/DTD/svg11.dtd">
<svg version="1.1" id="Layer_1" xmlns="http://www.w3.org/2000/svg" xmlns:xlink="http://www.w3.org/1999/xlink" x="0px" y="0px"
	 width="135.09px" height="25.546px" viewBox="0 0 135.09 25.546" style="enable-background:new 0 0 135.09 25.546;"
	 xml:space="preserve">
<g>
	<defs>
		<rect id="SVGID_1_" width="135.09" height="25.546"/>
	</defs>
	<clipPath id="SVGID_2_">
		<use xlink:href="#SVGID_1_"  style="overflow:visible;"/>
	</clipPath>
	<path style="clip-path:url(#SVGID_2_);fill-rule:evenodd;clip-rule:evenodd;fill:#2376B7;" d="M133.005,3.896
		c-0.986,0-1.809-0.823-1.809-1.811c0-1.043,0.823-1.811,1.809-1.811c0.988,0,1.81,0.768,1.81,1.811
		C134.815,3.073,133.993,3.896,133.005,3.896 M133.005,4.17c1.152,0,2.084-0.933,2.084-2.085c0-1.153-0.932-2.085-2.084-2.085
		c-1.151,0-2.083,0.932-2.083,2.085C130.922,3.237,131.854,4.17,133.005,4.17 M133.334,2.14c0.439,0,0.768-0.165,0.768-0.604
		c0-0.219-0.109-0.384-0.274-0.494c-0.165-0.11-0.384-0.11-0.603-0.11h-0.987v2.305h0.274V2.14h0.548l0.659,1.097h0.328
		L133.334,2.14z M132.512,1.92V1.097h0.658c0.329,0,0.603,0.055,0.603,0.439c0,0.439-0.493,0.384-0.822,0.384H132.512z"/>
	<rect y="5.081" style="clip-path:url(#SVGID_2_);fill:#2376B7;" width="7.847" height="20.465"/>
	<path style="clip-path:url(#SVGID_2_);fill:#2376B7;" d="M33.616,22.656c-1.634-1.875-2.664-4.409-2.654-7.343
		c0.007-1.841,0.749-4.702,2.863-7.116V5.081h-6.786v14.47l-4.197-14.47h-5.134h-5.844h-0.412v20.465h6.256V10.815L22.032,25.4
		h5.007h6.347h0.439h3.877C36.214,25.297,33.787,22.832,33.616,22.656"/>
	<path style="clip-path:url(#SVGID_2_);fill:#2376B7;" d="M37.91,25.4h-0.208C37.773,25.405,37.843,25.407,37.91,25.4"/>
	<path style="clip-path:url(#SVGID_2_);fill:#2376B7;" d="M114.273,5.081h-1.345h-4.803l-2.555,11.306l-2.875-11.306h-5.037h-0.751
		h-6.035V17.83L86.03,5.116H75.497L70.549,18.48c-0.707-1.623-3.606-2.619-3.606-2.619c4.454-1.343,5.31-4.511,4.384-7.47
		c-1.14-3.637-9.202-3.275-9.202-3.275L49.559,5.097l1.257,3.412c0,0-4.797-1.131-7.766,0.707c-2.969,1.838-4.032,4.561-3.039,7.564
		c1.049,3.175,3.675,3.605,4.382,3.605c0.707,0,2.969-0.99,2.969-0.99l-1.626-5.019l6.645-1.643l2.551,8.783
		c0,0-0.812,2.087-7.704,3.884h11.516v-7.489h2.003c2.379,0,2.591,2.05,2.591,2.05V25.4h12.301l1.555-4.379h6.574l1.555,4.525h5.549
		h6.786v-15.53l4.438,15.53h6.189l4.643-15.869v15.869h6.786V5.081H114.273z M58.737,14.235V9.499c0,0,5.104-0.848,5.104,2.05
		C63.841,11.549,64.445,14.789,58.737,14.235 M78.466,16.144l2.333-6.363l2.333,6.363H78.466z"/>
	<polygon style="clip-path:url(#SVGID_2_);fill:#2376B7;" points="129.917,25.372 125.363,25.372 125.363,24.12 128.469,23.368 
		125.363,22.625 125.363,21.37 129.917,21.37 129.917,22.147 126.331,22.147 129.917,22.97 129.917,23.775 126.331,24.595 
		129.917,24.595 	"/>
	<rect x="125.362" y="19.266" style="clip-path:url(#SVGID_2_);fill:#2376B7;" width="4.554" height="0.836"/>
	<path style="clip-path:url(#SVGID_2_);fill:#2376B7;" d="M128.242,15.355l0.283-0.811c0.497,0.124,0.866,0.331,1.107,0.62
		c0.241,0.289,0.362,0.656,0.362,1.101c0,0.55-0.206,1.002-0.62,1.356c-0.413,0.354-0.978,0.532-1.694,0.532
		c-0.758,0-1.347-0.178-1.766-0.535c-0.42-0.356-0.629-0.824-0.629-1.404c0-0.507,0.164-0.919,0.494-1.235
		c0.194-0.188,0.474-0.33,0.838-0.424l0.218,0.828c-0.236,0.049-0.423,0.151-0.56,0.307c-0.136,0.155-0.204,0.344-0.204,0.566
		c0,0.308,0.121,0.557,0.363,0.748c0.242,0.191,0.635,0.287,1.177,0.287c0.576,0,0.986-0.095,1.231-0.283
		c0.244-0.188,0.366-0.433,0.366-0.735c0-0.222-0.077-0.413-0.233-0.573C128.82,15.54,128.575,15.424,128.242,15.355"/>
	<path style="clip-path:url(#SVGID_2_);fill:#2376B7;" d="M129.916,13.36h-4.554v-1.761c0-0.443,0.041-0.765,0.123-0.965
		c0.081-0.201,0.227-0.362,0.436-0.482c0.209-0.121,0.448-0.181,0.718-0.181c0.341,0,0.624,0.091,0.846,0.274
		c0.223,0.183,0.363,0.456,0.421,0.82c0.116-0.181,0.244-0.331,0.382-0.448c0.139-0.118,0.385-0.277,0.74-0.476l0.888-0.506v1
		l-0.991,0.605c-0.354,0.215-0.577,0.362-0.669,0.441c-0.093,0.079-0.156,0.163-0.19,0.251c-0.034,0.089-0.051,0.229-0.051,0.422
		v0.169h1.901V13.36z M127.288,12.523v-0.619c0-0.401-0.019-0.652-0.056-0.752c-0.037-0.1-0.102-0.178-0.193-0.234
		c-0.091-0.057-0.205-0.085-0.341-0.085c-0.154,0-0.277,0.037-0.372,0.112c-0.094,0.074-0.153,0.179-0.178,0.315
		c-0.01,0.068-0.016,0.271-0.016,0.61v0.653H127.288z"/>
	<path style="clip-path:url(#SVGID_2_);fill:#2376B7;" d="M127.667,8.889c-0.464,0-0.853-0.063-1.168-0.189
		c-0.232-0.095-0.44-0.223-0.624-0.386c-0.185-0.163-0.321-0.342-0.41-0.536c-0.121-0.258-0.181-0.555-0.181-0.893
		c0-0.61,0.209-1.099,0.625-1.465c0.416-0.367,0.995-0.55,1.736-0.55c0.735,0,1.311,0.182,1.726,0.546
		c0.415,0.363,0.623,0.849,0.623,1.458c0,0.616-0.207,1.106-0.62,1.469C128.961,8.707,128.392,8.889,127.667,8.889 M127.636,8.027
		c0.516,0,0.907-0.108,1.173-0.325c0.266-0.217,0.399-0.492,0.399-0.825c0-0.334-0.132-0.607-0.396-0.821
		c-0.264-0.214-0.66-0.321-1.188-0.321c-0.522,0-0.911,0.104-1.168,0.312c-0.257,0.209-0.386,0.485-0.386,0.83
		c0,0.345,0.131,0.622,0.39,0.834C126.72,7.922,127.112,8.027,127.636,8.027"/>
</g>
</svg>
