<?xml version="1.0" encoding="iso-8859-1"?>
<!-- Generator: Adobe Illustrator 17.0.0, SVG Export Plug-In . SVG Version: 6.00 Build 0)  -->
<!DOCTYPE svg PUBLIC "-//W3C//DTD SVG 1.1//EN" "http://www.w3.org/Graphics/SVG/1.1/DTD/svg11.dtd">
<svg version="1.1" id="Layer_1" xmlns="http://www.w3.org/2000/svg" xmlns:xlink="http://www.w3.org/1999/xlink" x="0px" y="0px"
	 width="178.226px" height="24.237px" viewBox="0 0 178.226 24.237" style="enable-background:new 0 0 178.226 24.237;"
	 xml:space="preserve">
<g>
	<defs>
		<rect id="SVGID_1_" y="0" width="178.226" height="24.237"/>
	</defs>
	<clipPath id="SVGID_2_">
		<use xlink:href="#SVGID_1_"  style="overflow:visible;"/>
	</clipPath>
	<path style="clip-path:url(#SVGID_2_);fill:#2A4D9A;" d="M42.12,21.315h-0.113c-1.267,2.014-3.356,2.91-5.742,2.91
		c-3.32,0-6.527-1.829-6.527-5.372c0-5.818,6.788-6.228,11.263-6.228h1.119V12.14c0-2.2-1.716-3.356-4.103-3.356
		c-1.864,0-3.58,0.745-4.773,1.865l-2.35-2.35c1.977-2.014,4.774-2.872,7.608-2.872c7.646,0,7.646,5.519,7.646,8.056v10.293H42.12
		V21.315z M41.859,15.758h-0.933c-2.461,0-6.713,0.187-6.713,2.76c0,1.641,1.679,2.349,3.133,2.349c3.058,0,4.513-1.603,4.513-4.103
		V15.758z"/>
	<path style="clip-path:url(#SVGID_2_);fill:#2A4D9A;" d="M48.095,9.692V5.888h3.692V0.704h4.476v5.184h4.923v3.804h-4.923v7.832
		c0,1.79,0.522,2.909,2.499,2.909c0.783,0,1.864-0.15,2.424-0.559v3.766c-0.932,0.448-2.5,0.596-3.543,0.596
		c-4.737,0-5.856-2.125-5.856-6.34V9.692H48.095z"/>
	<path style="clip-path:url(#SVGID_2_);fill:#2A4D9A;" d="M76.537,11.245c-1.044-1.082-2.2-1.79-3.394-1.79
		c-3.282,0-5.259,2.574-5.259,5.371c0,2.796,1.977,5.37,5.259,5.37c1.38,0,2.648-0.596,3.468-1.678l2.984,3.208
		c-1.828,1.827-4.885,2.499-6.452,2.499c-5.408,0-9.733-3.768-9.733-9.399c0-5.632,4.325-9.399,9.733-9.399
		c2.275,0,4.774,0.821,6.489,2.723L76.537,11.245z"/>
	<path style="clip-path:url(#SVGID_2_);fill:#2A4D9A;" d="M82.334,0.034h4.314v7.269c0.552-0.521,1.98-1.884,4.673-1.884
		c2.01,0,4.25,1.104,5.548,2.758c1.426,1.818,1.426,4.38,1.426,5.711v9.901h-4.315v-8.961c0-1.946-0.129-5.449-3.698-5.449
		c-3.634,0-3.634,3.989-3.634,5.514v8.896h-4.314V0.034z"/>
	<path style="clip-path:url(#SVGID_2_);fill:#2B4C97;" d="M0,6.153h4.202v2.764h0.073C5.049,7.259,6.745,5.71,9.694,5.71
		c2.727,0,4.606,1.069,5.528,3.281c1.29-2.248,3.171-3.281,5.823-3.281c4.719,0,6.377,3.355,6.377,7.593v10.542H23V13.82
		c0-2.212-0.664-4.128-3.281-4.128c-2.765,0-3.796,2.285-3.796,4.569v9.584H11.5V13.303c0-2.174-0.885-3.611-3.023-3.611
		c-2.912,0-4.055,2.137-4.055,4.496v9.657H0V6.153z"/>
	<path style="clip-path:url(#SVGID_2_);fill:#2A4D9A;" d="M176.396,0c1.009,0,1.831,0.822,1.831,1.83
		c0,1.009-0.822,1.831-1.831,1.831s-1.831-0.822-1.831-1.831C174.565,0.822,175.387,0,176.396,0 M176.396,3.247
		c0.763,0,1.358-0.624,1.358-1.417c0-0.792-0.595-1.417-1.358-1.417s-1.359,0.625-1.359,1.417
		C175.037,2.623,175.633,3.247,176.396,3.247 M175.692,0.851h0.615c0.444,0,0.866,0.103,0.866,0.566c0,0.344-0.226,0.561-0.433,0.59
		l0.493,0.763h-0.517l-0.438-0.738h-0.114V2.77h-0.472V0.851z M176.16,1.648h0.231c0.118,0,0.31-0.004,0.31-0.207
		c0-0.196-0.192-0.206-0.31-0.206h-0.231V1.648z"/>
	<path style="clip-path:url(#SVGID_2_);fill:#2A4D9A;" d="M123.768,10.139c-0.836-1.291-2.469-2.354-4.444-2.354
		c-4.14-0.076-6.683,3-6.683,7.064c0,4.063,2.543,7.139,6.683,7.064c1.975,0,3.608-1.064,4.444-2.355l2.051,1.557
		c-1.747,2.051-4.101,3.038-6.495,3.077c-5.81,0.076-9.418-3.989-9.418-9.343c0-5.356,3.608-9.42,9.418-9.344
		c2.394,0.038,4.748,1.026,6.495,3.077L123.768,10.139z"/>
	<path style="clip-path:url(#SVGID_2_);fill:#2A4D9A;" d="M136.467,24.192c-5.508,0-9.42-3.989-9.42-9.343
		c0-5.355,3.912-9.343,9.42-9.343c5.545,0,9.456,3.988,9.456,9.343C145.923,20.203,142.012,24.192,136.467,24.192 M136.467,7.785
		c-4.103,0-6.685,3.076-6.685,7.064s2.582,7.064,6.685,7.064c4.14,0,6.722-3.076,6.722-7.064S140.607,7.785,136.467,7.785"/>
	<path style="clip-path:url(#SVGID_2_);fill:#2A4D9A;" d="M160.145,20.711v-7.343c0-3.608-1.025-5.583-4.481-5.583
		c-0.608,0-5.012,0.341-5.012,6.836v9.115h-2.507V9.912c0-1.33-0.114-2.621-0.191-3.95h2.698v2.696h0.075
		c1.215-2.051,3.607-3.152,5.735-3.152c1.936,0,4.481,0.645,5.658,3.683c1.026-2.277,3.457-3.683,5.849-3.683
		c4.52,0,6.685,2.544,6.685,6.95v11.28h-2.508V13.368c0-3.608-1.024-5.583-4.481-5.583c-3.722,0-5.012,3.19-5.012,6.494v9.457
		h-2.508V20.711"/>
	<path style="clip-path:url(#SVGID_2_);fill:#ACC768;" d="M103.678,18.243c1.603,0,2.983,1.23,2.983,2.834s-1.343,2.909-2.983,2.909
		c-1.567,0-2.985-1.23-2.985-2.834S102.036,18.243,103.678,18.243"/>
</g>
</svg>
